<?xml version="1.0" standalone="no"?>
<!DOCTYPE svg PUBLIC "-//W3C//DTD SVG 20010904//EN"
 "http://www.w3.org/TR/2001/REC-SVG-20010904/DTD/svg10.dtd">
<svg version="1.0" xmlns="http://www.w3.org/2000/svg"
 width="1182.000000pt" height="1182.000000pt" viewBox="0 0 1182.000000 1182.000000"
 preserveAspectRatio="xMidYMid meet">
<metadata>
Created by potrace 1.14, written by Peter Selinger 2001-2017
</metadata>
<g transform="translate(0.000000,1182.000000) scale(0.100000,-0.100000)"
fill="#000000" stroke="none">
<path d="M5861 11654 c-19 -14 -25 -14 -32 -3 -7 11 -9 11 -9 1 0 -7 -5 -10
-12 -6 -7 4 -8 3 -4 -5 4 -6 12 -9 17 -6 5 3 6 -1 3 -10 -6 -14 -8 -14 -22 3
-15 18 -17 18 -31 3 -9 -9 -13 -12 -8 -7 4 6 7 17 6 26 0 10 -2 11 -6 2 -2 -6
-10 -9 -15 -6 -7 5 -8 2 -3 -6 6 -10 4 -12 -8 -7 -10 4 -21 -1 -27 -11 -10
-15 -10 -15 -8 2 2 13 -4 20 -19 21 -15 1 -19 -3 -15 -14 5 -14 4 -14 -11 -2
-15 12 -17 12 -11 -3 3 -9 10 -16 15 -16 5 0 9 -5 9 -11 0 -8 -4 -8 -12 -2 -7
6 -21 9 -31 8 -9 -2 -15 1 -11 6 3 5 11 6 17 2 8 -5 8 -2 0 9 -7 8 -9 19 -5
23 4 5 1 5 -6 1 -7 -4 -9 -12 -6 -18 5 -7 0 -9 -15 -5 -18 4 -20 3 -11 -8 8
-10 8 -15 -1 -21 -7 -4 -9 -3 -6 3 4 6 -1 14 -11 18 -28 12 -61 14 -67 4 -3
-5 0 -7 7 -6 7 2 10 2 6 0 -4 -2 -5 -12 -2 -21 5 -15 4 -15 -6 1 -6 9 -18 17
-25 17 -8 0 -15 6 -15 13 0 6 -5 4 -11 -6 -6 -9 -14 -15 -19 -12 -5 3 -12 -4
-15 -16 -6 -17 -9 -19 -16 -8 -7 11 -9 9 -10 -6 l0 -20 -9 20 c-6 14 -9 15
-10 5 -1 -10 -4 -9 -10 5 -7 17 -9 17 -9 3 -1 -17 -13 -21 -63 -21 -10 0 -15
-4 -12 -8 3 -5 -11 -9 -31 -9 -28 0 -38 -5 -42 -20 -3 -11 -9 -20 -13 -20 -10
0 -8 20 5 40 8 13 6 13 -8 2 -9 -8 -16 -17 -15 -20 2 -21 -4 -23 -16 -7 -13
18 -14 17 -9 -10 3 -23 2 -27 -6 -15 -7 10 -11 11 -11 3 0 -7 -9 -13 -21 -13
-12 0 -17 -4 -13 -11 4 -8 -1 -9 -17 -4 -21 7 -22 6 -10 -9 8 -9 9 -16 3 -16
-6 0 -13 4 -17 10 -8 13 -35 1 -35 -17 0 -8 -4 -11 -10 -8 -5 3 -10 -1 -10 -9
0 -8 -4 -17 -9 -20 -4 -3 -6 7 -4 22 3 22 2 24 -5 7 -5 -11 -14 -21 -21 -21
-24 -3 -25 -5 -11 -15 12 -9 11 -10 -7 -6 -13 3 -26 0 -30 -5 -3 -6 -2 -8 4
-5 5 3 10 0 10 -7 0 -14 -21 -11 -42 5 -7 5 -11 0 -11 -11 0 -10 5 -16 10 -13
5 3 6 1 2 -6 -6 -9 -11 -9 -24 1 -10 8 -13 9 -9 1 4 -6 1 -18 -7 -26 -8 -8
-12 -18 -8 -23 4 -5 -1 -2 -11 5 -15 12 -17 12 -12 -1 3 -8 -6 -25 -20 -38
-22 -21 -28 -22 -36 -10 -9 12 -10 12 -5 -3 3 -11 0 -20 -10 -24 -9 -3 -14
-13 -11 -23 2 -9 -1 -17 -7 -18 -25 -2 -46 -9 -53 -16 -4 -4 -1 -6 7 -4 10 2
15 -6 15 -24 1 -17 -3 -24 -8 -19 -6 6 -15 5 -23 -4 -19 -19 -17 -26 4 -18 22
8 14 -1 -15 -16 -19 -9 -22 -9 -17 3 3 8 1 16 -3 19 -12 7 -10 -34 1 -53 7
-11 4 -10 -10 2 -19 16 -20 16 -21 -3 -1 -12 3 -17 10 -13 7 3 4 -1 -5 -9 -10
-8 -15 -17 -11 -20 3 -4 -3 -10 -13 -14 -10 -4 -25 -13 -32 -20 -8 -7 -17 -11
-21 -8 -5 2 -6 -7 -3 -22 3 -18 1 -24 -7 -19 -6 4 -11 2 -11 -4 0 -6 -4 -8
-10 -5 -5 3 -10 1 -10 -5 0 -6 -5 -8 -12 -3 -7 4 -5 -5 4 -19 13 -19 15 -29 6
-34 -7 -4 -8 -3 -4 4 4 7 1 12 -9 12 -9 0 -13 -4 -10 -10 3 -5 2 -10 -4 -10
-6 0 -8 -8 -4 -17 3 -10 3 -15 -2 -11 -4 4 -16 -2 -26 -14 -19 -21 -25 -40
-11 -35 6 2 12 -6 12 -18 0 -2 -11 0 -25 5 -19 7 -23 6 -18 -5 3 -9 -1 -15
-11 -15 -9 0 -16 -5 -16 -11 0 -5 6 -7 13 -4 6 4 3 -1 -7 -9 -11 -9 -24 -16
-28 -16 -5 0 -8 -8 -6 -17 2 -11 -2 -17 -10 -15 -8 1 -11 -2 -7 -8 3 -6 11 -8
16 -5 5 4 9 1 9 -6 0 -6 -8 -9 -18 -7 -12 4 -18 -1 -19 -14 -1 -11 3 -16 10
-12 7 3 3 -2 -7 -10 -18 -14 -15 -21 7 -17 5 1 5 -3 2 -9 -4 -6 -12 -9 -19 -7
-6 3 -17 -2 -25 -10 -12 -13 -11 -14 6 -9 13 4 25 0 34 -11 10 -14 10 -16 0
-6 -22 19 -38 5 -36 -32 2 -19 -1 -32 -6 -30 -4 3 -6 12 -3 19 3 8 1 17 -4 20
-5 3 -7 -10 -5 -30 2 -23 0 -33 -7 -29 -6 4 -10 -14 -10 -50 0 -42 3 -55 13
-50 6 4 3 0 -7 -9 -10 -8 -23 -13 -29 -9 -6 3 -7 1 -3 -6 4 -6 11 -9 16 -6 4
3 13 -2 19 -9 9 -11 9 -16 0 -22 -7 -4 -9 -3 -5 4 8 14 -7 23 -23 13 -10 -6
-9 -12 4 -25 22 -21 7 -21 -19 2 -16 13 -18 13 -8 1 6 -9 9 -19 5 -22 -3 -4
-2 -7 3 -7 5 0 10 -9 11 -20 1 -11 -3 -18 -8 -14 -12 7 -7 -18 6 -29 6 -5 0
-7 -13 -4 -12 3 -20 1 -16 -4 3 -5 11 -9 19 -9 9 0 13 -10 12 -27 -1 -19 2
-27 11 -25 8 1 11 -2 7 -8 -3 -6 -10 -8 -15 -5 -4 3 -11 -2 -14 -11 -9 -23 -8
-26 7 -18 6 4 4 -2 -7 -14 -14 -16 -16 -25 -8 -35 8 -10 6 -16 -8 -25 -14 -9
-20 -8 -23 1 -4 9 -6 9 -6 0 -1 -6 4 -15 9 -18 6 -4 7 -13 1 -24 -7 -13 -6
-18 4 -18 7 0 11 7 8 16 -3 12 -2 11 7 -2 6 -9 16 -14 22 -11 7 4 8 2 4 -5 -4
-6 -11 -9 -15 -7 -4 3 -13 1 -20 -3 -10 -7 -11 -13 -2 -30 7 -12 9 -26 6 -31
-3 -5 -1 -12 5 -15 8 -5 7 -11 -1 -21 -9 -11 -8 -15 5 -20 9 -3 16 -11 16 -16
0 -6 -6 -5 -15 2 -12 10 -14 6 -11 -25 3 -25 -1 -38 -10 -42 -10 -4 -11 -9 -4
-18 5 -6 6 -16 2 -20 -4 -5 -1 -5 6 -1 9 6 11 1 8 -18 -3 -14 0 -28 5 -32 5
-3 7 -10 3 -15 -3 -5 0 -8 7 -7 6 2 12 -7 14 -19 1 -12 -2 -20 -7 -17 -4 3 -8
0 -8 -5 0 -6 5 -11 11 -11 5 0 7 -5 4 -10 -4 -6 -11 -7 -17 -4 -6 4 -8 2 -4
-4 3 -5 3 -12 -1 -15 -5 -2 -2 -2 5 -1 6 2 12 0 13 -4 0 -4 2 -17 5 -30 2 -14
0 -21 -6 -17 -14 9 -12 -29 3 -44 6 -8 0 -6 -16 4 -24 16 -27 16 -21 1 3 -9 0
-24 -7 -33 -10 -12 -10 -15 -1 -9 10 6 17 -6 10 -16 -1 -2 4 -12 10 -24 8 -16
8 -21 -2 -21 -8 0 -12 10 -10 25 1 13 0 21 -4 18 -10 -10 -10 -70 0 -89 6 -12
16 -16 26 -12 13 5 14 3 6 -5 -9 -9 -17 -9 -32 -1 -14 8 -23 8 -27 1 -4 -6 -3
-10 2 -9 22 4 31 -3 35 -26 3 -14 1 -28 -3 -31 -5 -3 -9 -11 -9 -17 0 -7 4 -6
10 3 6 10 10 11 10 3 0 -7 8 -13 18 -14 11 -1 9 -4 -8 -9 l-25 -8 25 -1 c20
-1 22 -3 10 -11 -13 -8 -13 -10 1 -10 9 0 24 -9 34 -20 16 -18 16 -20 2 -20
-10 0 -16 5 -15 12 2 6 -6 13 -17 15 l-20 3 20 -9 c11 -5 16 -10 11 -10 -5 -1
-1 -11 10 -23 12 -14 14 -18 4 -13 -8 4 -6 -1 5 -12 11 -11 25 -18 30 -16 6 2
1 -3 -9 -11 -19 -16 -19 -16 2 -16 12 0 22 -5 22 -11 0 -5 -4 -8 -8 -5 -5 3
-9 -1 -9 -9 0 -7 8 -12 18 -10 10 2 22 -1 25 -7 4 -7 2 -8 -4 -4 -7 4 -12 1
-13 -6 0 -7 -2 -21 -4 -31 -4 -19 22 -50 34 -42 9 5 9 -75 0 -90 -11 -17 -3
-59 12 -63 11 -3 11 -2 1 6 -10 7 -9 12 4 23 15 12 17 12 12 -1 -3 -8 -1 -24
5 -34 8 -16 6 -18 -9 -12 -17 6 -17 6 -1 -12 9 -10 14 -22 10 -26 -4 -4 -2
-11 6 -15 10 -6 9 -10 -4 -14 -10 -5 -14 -3 -9 5 4 7 3 8 -5 4 -9 -6 -9 -11 0
-22 6 -7 14 -12 18 -10 4 3 7 -6 7 -18 0 -12 -6 -23 -13 -23 -6 0 -9 5 -6 10
3 6 1 7 -5 3 -17 -10 -3 -36 16 -30 16 5 16 4 1 -8 -9 -7 -17 -16 -18 -20 -5
-24 -14 -37 -21 -33 -5 3 -7 -2 -6 -10 3 -18 16 -32 16 -17 0 7 5 12 10 12 6
0 5 -8 -2 -19 -10 -16 -15 -18 -28 -8 -8 6 -6 2 4 -11 20 -23 32 -30 21 -12
-3 6 1 10 10 10 12 0 14 -4 6 -19 -8 -14 -7 -22 4 -31 11 -9 12 -16 5 -25 -5
-6 -7 -15 -3 -18 12 -13 -13 -7 -26 6 -11 10 -12 9 -5 -3 5 -8 9 -28 9 -43 0
-18 9 -35 25 -47 14 -11 19 -20 13 -20 -7 0 -13 -4 -13 -10 0 -5 6 -7 14 -4 7
3 16 -2 20 -11 3 -9 2 -13 -4 -10 -5 3 -17 2 -26 -3 -15 -8 -15 -10 0 -15 11
-5 15 -3 10 5 -5 7 -3 8 5 3 9 -5 9 -11 3 -17 -12 -12 -5 -38 10 -38 6 0 4 8
-3 18 -13 15 -12 16 3 3 10 -7 16 -17 13 -21 -3 -5 -1 -11 5 -15 13 -8 13 -25
-1 -25 -5 0 -8 4 -4 9 3 5 1 12 -4 15 -11 7 -8 -8 8 -47 6 -16 9 -33 5 -38 -3
-5 -1 -8 4 -7 6 2 11 -1 13 -7 3 -14 32 -34 41 -29 5 3 8 0 8 -5 0 -14 -13
-14 -26 -1 -6 6 -10 3 -10 -9 0 -10 6 -17 12 -14 7 2 15 -1 20 -8 5 -8 3 -10
-5 -4 -8 4 -7 -2 3 -17 9 -14 13 -28 9 -33 -5 -4 -3 -5 4 -1 7 4 9 14 6 24 -7
18 -5 17 17 -12 10 -13 10 -17 3 -12 -18 10 -16 0 5 -31 9 -15 12 -24 5 -20
-6 4 -14 1 -17 -5 -3 -7 -3 -3 -1 9 7 28 -9 38 -26 15 -13 -15 -12 -16 4 -3
15 12 17 11 15 -10 -2 -18 1 -23 14 -21 12 2 16 -5 14 -27 -1 -16 2 -28 6 -25
4 3 8 -2 8 -10 0 -8 -6 -14 -12 -12 -7 1 -10 1 -5 -1 4 -3 4 -10 1 -15 -5 -7
-2 -8 7 -2 24 15 35 12 36 -7 1 -11 -2 -19 -5 -19 -17 0 -10 -40 6 -41 14 0
13 -2 -3 -9 -11 -5 -15 -9 -8 -9 7 -1 10 -8 7 -16 -4 -11 -2 -13 9 -10 10 5
14 0 12 -17 -1 -13 -3 -23 -4 -23 -2 0 -4 -8 -6 -17 -2 -11 9 -26 26 -39 22
-15 28 -27 25 -44 -3 -13 -1 -26 2 -28 4 -2 1 -2 -7 0 -11 3 -9 -2 4 -17 21
-23 25 -36 26 -93 1 -26 5 -35 13 -30 7 5 3 0 -7 -9 -11 -11 -14 -18 -7 -18
10 0 10 -3 0 -15 -11 -13 -10 -14 5 -9 14 6 16 3 11 -14 -4 -11 -2 -23 3 -26
6 -4 7 -14 4 -23 -5 -12 -3 -14 8 -8 11 6 11 5 2 -5 -14 -15 4 -63 20 -53 7 4
8 0 4 -11 -6 -14 -3 -17 10 -12 15 5 15 4 -1 -9 -18 -13 -15 -20 6 -16 5 0 7
-2 7 -7 -3 -19 2 -33 10 -28 5 4 7 -2 4 -12 -2 -10 3 -24 11 -31 9 -8 16 -19
16 -25 0 -6 -5 -4 -10 4 -8 13 -10 12 -10 -4 0 -13 5 -17 19 -13 14 3 18 1 14
-9 -3 -8 -9 -11 -14 -8 -5 3 -6 -2 -3 -10 3 -9 10 -13 15 -10 5 3 9 0 9 -5 0
-6 -6 -11 -12 -11 -9 0 -9 -3 1 -9 8 -5 16 -19 18 -30 2 -15 -1 -19 -15 -15
-9 3 -7 -1 6 -8 25 -15 20 -30 -6 -21 -15 4 -15 3 -2 -6 8 -6 24 -8 35 -6 11
3 14 2 8 -1 -7 -3 -13 -10 -13 -16 0 -5 -8 -20 -18 -33 -18 -22 -19 -22 -30
-4 -13 20 -32 26 -32 9 0 -5 4 -9 9 -7 5 1 10 -2 11 -8 1 -5 7 -16 13 -24 7
-8 -1 -6 -18 5 -18 12 -26 14 -21 5 6 -9 5 -12 -5 -9 -8 3 -13 11 -11 18 2 11
-1 10 -15 0 -28 -22 -29 -24 -9 -16 19 7 19 6 1 -14 -13 -14 -22 -17 -29 -10
-15 15 -30 12 -17 -4 9 -11 9 -16 0 -22 -8 -4 -9 -3 -5 4 12 20 -20 13 -39 -8
-13 -14 -14 -20 -5 -20 9 0 7 -5 -6 -16 -10 -8 -13 -13 -6 -9 6 3 12 1 12 -4
0 -6 -7 -11 -16 -11 -13 0 -14 -3 -5 -13 6 -8 7 -17 3 -21 -4 -4 -7 -13 -7
-19 0 -7 -6 -12 -14 -12 -19 0 -30 -35 -20 -62 5 -13 11 -23 14 -23 4 0 3 5
-1 12 -4 6 -3 8 3 5 6 -4 9 -18 8 -32 -2 -14 1 -25 6 -25 6 0 8 -4 4 -10 -3
-5 -13 -7 -23 -4 -9 3 -6 -1 8 -9 14 -9 29 -13 34 -10 5 4 6 1 2 -5 -4 -6 -14
-9 -24 -6 -16 5 -16 5 0 -5 9 -6 15 -20 13 -31 -2 -11 1 -23 7 -26 7 -5 8 -2
3 7 -8 12 -6 12 8 0 9 -7 17 -19 17 -25 0 -7 -4 -6 -9 2 -6 10 -10 8 -14 -8
-3 -14 -10 -19 -17 -15 -8 5 -9 10 -2 14 7 4 6 12 -3 24 -12 16 -13 12 -10
-30 2 -26 9 -49 15 -51 5 -2 10 -8 10 -14 0 -6 -6 -6 -15 2 -12 10 -15 10 -15
0 0 -8 -3 -10 -7 -7 -3 4 -12 2 -19 -4 -8 -7 -14 -7 -19 1 -4 6 -3 10 2 9 14
-3 43 13 43 24 0 5 -9 2 -20 -8 -11 -10 -20 -15 -20 -10 0 4 -6 2 -14 -4 -8
-7 -12 -22 -9 -34 3 -16 2 -18 -5 -8 -5 7 -15 10 -21 7 -6 -4 -11 -1 -11 6 0
9 -3 9 -10 -2 -5 -8 -10 -10 -10 -5 0 6 -4 3 -10 -5 -6 -9 -5 -17 2 -21 6 -4
-7 -6 -28 -5 -26 2 -38 7 -36 15 1 7 -2 10 -8 6 -6 -3 -8 -11 -5 -16 4 -5 -1
-9 -10 -9 -10 0 -13 5 -9 12 5 8 2 9 -10 5 -10 -4 -20 -7 -24 -7 -3 0 3 -7 14
-15 18 -14 17 -15 -8 -5 -18 6 -29 6 -33 0 -11 -17 -27 -11 -21 8 6 16 5 16
-7 0 -8 -10 -17 -15 -20 -11 -4 3 -7 1 -7 -6 0 -8 6 -11 16 -7 8 3 12 2 9 -4
-4 -6 -18 -8 -31 -6 -21 4 -23 2 -14 -9 9 -11 7 -13 -7 -10 -10 1 -17 8 -15
16 2 9 -1 9 -10 2 -7 -5 -25 -9 -40 -8 -15 1 -25 -2 -22 -7 3 -4 10 -6 15 -3
5 3 6 -1 3 -10 -5 -12 -9 -13 -20 -4 -12 9 -13 9 -9 -4 4 -8 1 -18 -5 -22 -6
-3 -9 -3 -8 2 4 10 -5 13 -39 13 -22 0 -25 -2 -13 -10 13 -8 12 -10 -2 -10
-10 0 -18 -5 -18 -11 0 -5 -4 -8 -10 -4 -5 3 -7 13 -4 23 5 14 4 14 -4 2 -6
-8 -8 -18 -6 -22 3 -4 0 -8 -5 -8 -6 0 -11 4 -11 8 0 5 -7 9 -15 9 -20 0 -19
-7 3 -23 15 -13 14 -13 -10 -4 -19 6 -29 6 -34 -2 -4 -7 -3 -8 4 -4 8 5 10 1
5 -10 -5 -14 -8 -13 -20 7 -13 22 -14 22 -10 3 4 -18 0 -21 -25 -19 -20 2 -28
-1 -25 -10 8 -19 -26 -13 -44 8 -11 14 -18 17 -23 8 -4 -7 -2 -10 5 -9 6 2 14
-4 17 -12 2 -8 1 -12 -3 -8 -4 4 -14 0 -22 -10 -12 -16 -13 -16 -11 0 2 9 -1
17 -7 17 -13 1 -14 -20 -1 -39 9 -13 9 -13 -6 -2 -9 7 -18 9 -20 5 -3 -4 -3
-2 -2 5 2 6 -1 12 -6 12 -6 0 -10 -6 -10 -12 0 -9 -4 -8 -11 2 -8 12 -9 8 -6
-15 5 -27 4 -28 -9 -11 -7 10 -11 23 -7 29 3 6 1 7 -5 3 -7 -4 -12 -14 -12
-22 0 -8 -4 -12 -10 -9 -5 3 -10 2 -10 -3 0 -5 -7 -9 -15 -9 -8 0 -12 4 -10 8
3 3 -3 13 -13 20 -15 13 -16 12 -3 -3 9 -13 10 -18 2 -18 -7 0 -9 -6 -6 -12 4
-7 0 -5 -8 5 -15 18 -32 24 -22 7 3 -5 1 -10 -5 -10 -6 0 -8 -4 -5 -10 4 -6
-5 -10 -19 -10 -14 0 -26 -6 -26 -12 0 -9 -3 -9 -9 1 -14 23 -49 22 -43 -1 3
-14 0 -17 -13 -11 -12 4 -16 3 -11 -5 3 -6 2 -13 -3 -16 -5 -4 -13 -1 -17 5
-5 8 -3 9 7 4 8 -5 10 -4 6 0 -22 25 -87 -6 -66 -31 7 -9 6 -12 -5 -10 -9 1
-19 6 -23 11 -4 4 -2 5 6 0 10 -5 12 -4 7 4 -4 6 -12 9 -17 6 -5 -4 -15 -3
-21 2 -19 11 -39 13 -32 2 3 -5 11 -6 17 -3 7 4 8 3 4 -2 -5 -5 -12 -9 -15 -9
-4 0 -13 -4 -21 -9 -10 -6 -12 -5 -7 2 4 7 2 12 -3 12 -6 0 -11 -7 -11 -16 0
-9 -5 -12 -12 -8 -8 5 -9 1 -4 -12 5 -15 4 -16 -5 -7 -6 6 -18 9 -27 6 -11 -5
-13 -3 -7 8 5 8 -3 4 -17 -9 -19 -17 -28 -20 -33 -11 -5 7 -4 10 3 5 6 -3 13
-2 16 3 3 5 -3 11 -13 14 -15 4 -18 0 -16 -20 2 -22 1 -23 -16 -7 -10 9 -16
22 -12 28 3 6 2 7 -3 3 -9 -8 -10 -12 -13 -39 -1 -9 -4 -8 -11 2 -8 12 -10 12
-10 1 0 -11 -3 -11 -16 0 -24 20 -44 20 -37 1 5 -13 3 -14 -6 -6 -8 7 -25 9
-46 4 -19 -4 -36 -5 -39 -3 -2 3 -2 -6 1 -19 4 -18 3 -20 -6 -8 -7 10 -11 11
-11 3 0 -7 -5 -13 -11 -13 -5 0 -7 4 -4 10 3 5 1 10 -5 10 -6 0 -8 6 -4 13 4
7 3 9 -2 4 -5 -5 -9 -13 -9 -18 0 -5 -4 -9 -10 -8 -5 0 -9 8 -7 17 2 14 1 15
-7 2 -5 -8 -7 -18 -5 -22 3 -4 0 -8 -5 -8 -6 0 -11 5 -11 11 0 6 -7 3 -16 -5
-19 -20 -31 -21 -15 -2 9 11 8 15 -4 20 -9 3 -13 2 -10 -4 3 -6 1 -10 -5 -10
-6 0 -8 -5 -4 -11 5 -8 1 -8 -14 0 -18 10 -20 8 -17 -8 3 -16 -1 -19 -22 -15
-14 3 -34 9 -44 14 -10 6 -21 10 -26 10 -4 -1 3 -7 16 -14 15 -8 20 -16 12
-20 -6 -4 -11 -2 -11 3 0 6 -9 11 -20 11 -11 0 -20 -7 -20 -15 0 -8 -5 -15
-11 -15 -5 0 -8 4 -4 9 3 5 1 12 -4 16 -6 3 -8 -3 -6 -15 2 -11 0 -20 -6 -20
-5 0 -9 5 -9 10 0 6 -5 10 -11 10 -5 0 -7 -6 -3 -12 5 -8 0 -7 -11 2 -10 8
-16 11 -13 5 3 -5 -1 -16 -9 -24 -13 -12 -14 -11 -8 10 7 21 6 22 -9 10 -10
-9 -16 -10 -16 -2 0 6 -5 11 -10 11 -6 0 -4 -10 5 -23 15 -23 14 -23 -15 -19
-17 2 -27 9 -23 15 3 6 1 7 -5 3 -6 -4 -9 -13 -5 -21 4 -11 1 -13 -13 -8 -11
4 -15 3 -11 -4 4 -6 0 -14 -9 -17 -23 -9 -24 -8 -17 12 5 14 3 13 -10 -3 -8
-11 -13 -27 -12 -37 2 -10 0 -18 -6 -18 -5 0 -9 5 -9 10 0 6 -5 10 -11 10 -5
0 -7 -4 -4 -10 3 -5 -2 -10 -12 -10 -13 0 -15 -2 -5 -9 10 -6 10 -10 -2 -20
-8 -7 -21 -9 -27 -5 -7 4 -9 3 -5 -4 3 -6 -2 -16 -13 -22 -12 -6 -18 -16 -15
-25 4 -10 1 -14 -7 -12 -8 2 -11 2 -6 0 4 -3 7 -14 6 -26 0 -12 -3 -16 -6 -9
-7 19 -23 4 -16 -16 6 -14 4 -15 -8 -5 -13 10 -15 10 -14 -5 0 -9 5 -24 10
-31 5 -9 4 -12 -3 -7 -11 7 -28 -29 -24 -51 2 -7 -1 -13 -7 -13 -5 0 -12 6
-15 13 -3 6 -4 1 -3 -13 1 -18 -2 -24 -15 -22 -9 1 -20 -3 -24 -9 -4 -8 -3 -9
4 -5 7 4 19 3 28 -2 15 -8 15 -10 0 -15 -11 -5 -15 -3 -10 5 4 7 3 8 -5 4 -9
-6 -9 -11 -1 -21 8 -10 8 -15 -1 -21 -8 -5 -10 -3 -4 7 7 12 6 12 -6 1 -12
-11 -11 -16 6 -29 20 -15 20 -15 -1 -11 -19 5 -21 1 -20 -38 1 -24 -3 -42 -9
-41 -5 1 -10 -7 -10 -17 0 -11 -6 -21 -14 -24 -9 -3 -11 0 -6 9 5 9 2 9 -9 -2
-16 -15 -13 -54 3 -44 4 2 8 -2 8 -10 0 -11 -5 -12 -20 -4 -14 8 -22 7 -31 -2
-8 -9 -8 -10 2 -5 6 4 12 2 12 -4 0 -6 5 -8 13 -4 8 5 8 2 -2 -9 -7 -9 -21
-17 -30 -18 -12 0 -11 -2 4 -8 11 -5 23 -7 27 -5 4 3 10 0 13 -6 4 -6 1 -9 -7
-8 -7 2 -12 -3 -10 -11 3 -12 1 -12 -13 -1 -14 12 -15 10 -11 -13 3 -19 -1
-30 -13 -37 -17 -9 -23 -51 -9 -65 3 -3 5 7 3 23 -1 19 2 29 11 29 10 0 11 -4
3 -14 -9 -10 -8 -13 2 -13 12 0 12 -2 1 -9 -8 -4 -14 -12 -15 -17 -1 -5 -6 -8
-11 -6 -5 2 -6 -6 -3 -17 3 -13 1 -18 -8 -14 -9 3 -12 -2 -11 -14 2 -10 -2
-21 -8 -25 -7 -5 -4 -8 7 -8 19 0 23 -15 5 -26 -6 -4 -8 -3 -5 3 3 5 0 10 -8
10 -10 0 -12 -4 -5 -12 5 -7 6 -15 2 -19 -4 -4 -2 -7 3 -6 29 6 38 -2 15 -13
-16 -8 -27 -10 -32 -4 -3 6 -5 -1 -5 -16 2 -18 5 -23 14 -16 8 7 10 5 6 -10
-3 -12 -9 -19 -13 -16 -4 3 -14 -3 -21 -13 -13 -15 -12 -16 4 -3 12 9 17 10
17 2 0 -7 5 -9 12 -5 7 4 8 3 4 -5 -4 -6 -12 -9 -17 -6 -5 4 -5 -4 1 -19 9
-24 6 -30 -12 -27 -5 0 -8 -4 -8 -10 0 -5 -4 -8 -8 -5 -4 2 -14 0 -22 -6 -12
-8 -12 -9 2 -4 19 6 21 -16 4 -43 -6 -10 -5 -12 2 -7 7 4 12 2 12 -4 0 -6 4
-9 9 -5 5 3 12 1 15 -4 4 -5 -8 -7 -26 -5 -32 4 -32 4 -10 -9 12 -7 20 -16 16
-20 -4 -4 -13 -2 -21 5 -11 9 -12 7 -6 -8 6 -17 5 -18 -13 -4 -17 14 -18 14
-6 -2 10 -13 10 -17 0 -22 -7 -3 -2 -3 12 0 l25 5 -25 -21 c-14 -12 -19 -19
-12 -15 14 7 16 -4 2 -25 -6 -9 -5 -19 3 -28 9 -11 7 -13 -8 -10 -10 1 -20 -3
-23 -11 -3 -9 0 -11 8 -6 9 6 11 4 5 -5 -4 -7 -2 -16 6 -21 9 -6 4 -7 -16 -3
-29 6 -29 6 -10 -10 14 -12 15 -14 4 -10 -10 3 -20 0 -25 -7 -5 -8 -3 -10 6
-4 9 5 11 4 6 -3 -4 -7 -4 -18 1 -24 10 -17 13 -38 5 -37 -4 1 -10 0 -14 -1
-5 -1 -13 -3 -20 -4 -7 0 -12 -12 -12 -26 0 -19 5 -24 19 -22 19 2 19 2 2 -9
-15 -9 -16 -13 -5 -27 12 -15 11 -16 -4 -3 -10 7 -15 17 -12 22 3 5 -3 6 -12
2 -11 -4 -13 -8 -6 -11 7 -2 12 -8 12 -13 0 -6 -4 -8 -8 -5 -4 2 -14 -5 -22
-17 -12 -21 -12 -21 5 -7 14 11 17 11 11 1 -5 -8 -3 -17 5 -22 12 -7 12 -9 0
-9 -10 0 -11 -3 -2 -14 9 -11 9 -16 0 -22 -7 -4 -10 -3 -6 2 3 5 -2 18 -10 29
-15 19 -15 19 -8 -4 6 -20 4 -23 -9 -18 -12 5 -15 3 -9 -6 12 -20 12 -38 0
-34 -7 3 -11 10 -9 16 1 7 -2 9 -9 5 -9 -5 -5 -13 10 -26 18 -14 20 -18 7 -18
-9 0 -16 -4 -16 -10 0 -5 8 -7 18 -4 13 5 14 4 3 -4 -8 -6 -10 -15 -5 -23 6
-12 5 -12 -8 -1 -13 10 -17 10 -22 -3 -4 -11 -2 -14 7 -10 6 4 1 -3 -13 -14
-16 -14 -19 -19 -8 -15 10 3 18 1 18 -5 0 -6 -7 -11 -16 -11 -9 0 -12 -5 -8
-12 5 -8 2 -9 -11 -4 -14 5 -16 4 -7 -7 7 -8 8 -18 4 -22 -4 -5 2 -5 12 -1 16
5 17 4 6 -9 -7 -8 -17 -12 -23 -8 -6 3 -7 1 -3 -6 4 -6 11 -9 16 -6 5 3 12 0
16 -6 4 -8 3 -9 -4 -5 -11 7 -17 -7 -12 -29 1 -5 -1 -7 -5 -3 -4 4 -13 2 -20
-5 -15 -14 -7 -50 9 -40 7 4 6 1 -1 -9 -7 -8 -9 -19 -5 -23 4 -5 1 -5 -6 -1
-7 4 -9 12 -6 18 4 7 2 8 -4 4 -6 -4 -8 -14 -5 -24 6 -14 4 -15 -8 -5 -13 10
-16 10 -16 -2 0 -14 11 -19 30 -16 5 1 6 -3 2 -9 -3 -6 -10 -8 -15 -5 -5 3
-11 1 -15 -5 -3 -5 0 -10 7 -10 9 0 9 -3 -2 -10 -11 -7 -11 -10 -2 -10 7 0 10
-5 7 -10 -4 -6 -10 -8 -15 -5 -5 3 -12 0 -16 -6 -4 -8 -3 -9 4 -5 7 4 12 1 12
-8 0 -9 4 -16 8 -16 5 0 9 -7 9 -15 0 -11 -4 -12 -14 -3 -7 6 -16 8 -20 4 -3
-3 -1 -6 5 -6 7 0 12 -5 12 -11 0 -5 -5 -7 -10 -4 -7 4 -10 -4 -7 -22 2 -17
-2 -33 -12 -41 -14 -12 -14 -13 1 -8 10 3 18 1 18 -4 0 -6 -7 -10 -16 -10 -11
0 -14 -5 -10 -16 5 -13 4 -14 -7 -6 -10 9 -14 8 -14 -3 0 -8 3 -15 7 -15 11 0
6 -52 -7 -75 -5 -11 -8 -26 -6 -32 3 -7 -2 -16 -11 -19 -9 -3 -13 -10 -10 -15
3 -5 10 -6 16 -3 7 4 8 2 4 -4 -4 -6 -12 -10 -19 -8 -7 1 -9 1 -4 -1 14 -8 7
-25 -8 -19 -8 3 -15 1 -15 -5 0 -6 -6 -7 -12 -3 -10 6 -10 5 -1 -8 7 -8 9 -19
5 -23 -4 -5 -1 -5 7 0 10 6 12 4 7 -4 -5 -7 -15 -10 -25 -7 -12 5 -12 3 3 -9
10 -8 23 -12 29 -8 6 3 7 1 3 -6 -4 -6 -13 -8 -19 -4 -7 4 -5 -2 3 -12 12 -15
12 -17 1 -10 -11 6 -13 4 -7 -10 5 -15 4 -16 -9 -5 -9 7 -15 9 -14 4 4 -22 -2
-35 -14 -29 -6 4 -1 -3 12 -14 13 -12 19 -21 13 -21 -6 0 -12 -10 -14 -23 -2
-12 -9 -21 -15 -20 -9 2 -10 -4 -4 -20 13 -34 4 -49 -22 -36 -19 9 -18 7 3
-10 22 -18 21 -26 -2 -22 -4 0 -5 -6 -2 -14 4 -8 11 -12 17 -8 6 3 7 1 3 -6
-4 -6 -11 -9 -15 -6 -5 2 -17 -3 -27 -11 -10 -9 -13 -13 -6 -9 7 4 12 0 12 -9
0 -8 5 -16 12 -18 7 -3 5 -7 -6 -11 -10 -4 -15 -3 -11 3 3 6 1 10 -5 10 -7 0
-10 -6 -8 -12 3 -7 10 -13 15 -13 6 0 15 -3 19 -8 7 -6 -18 -12 -39 -8 -5 1
-6 -3 -2 -9 3 -6 12 -7 18 -3 9 5 9 3 0 -8 -7 -9 -9 -20 -5 -25 4 -5 -1 -1
-10 9 -16 17 -17 17 -15 -3 1 -11 5 -20 10 -20 4 0 5 -6 0 -12 -11 -18 -13
-39 -3 -33 5 3 11 1 14 -4 4 -5 2 -12 -3 -16 -6 -3 -8 -13 -5 -23 5 -14 4 -15
-5 -2 -9 13 -11 13 -11 -2 0 -10 5 -18 12 -18 6 0 8 -3 5 -6 -4 -4 -13 -1 -22
6 -18 15 -21 0 -3 -18 9 -9 6 -14 -13 -21 -15 -6 -18 -10 -8 -10 12 -1 15 -8
11 -27 -4 -20 -2 -25 8 -19 9 5 11 4 6 -4 -6 -9 -11 -9 -24 1 -10 8 -13 9 -9
1 4 -6 3 -14 -2 -18 -6 -3 -8 -12 -5 -20 4 -8 11 -12 17 -8 6 3 7 1 3 -6 -6
-9 -11 -9 -24 1 -9 8 -13 8 -9 2 4 -7 0 -14 -8 -18 -8 -3 -15 -11 -15 -18 0
-10 2 -10 9 1 6 8 16 11 31 6 17 -5 19 -9 10 -15 -8 -5 -15 -14 -16 -22 -1 -7
-5 -22 -9 -33 -6 -17 -3 -16 15 5 l22 25 -14 -25 c-8 -14 -14 -32 -13 -41 2
-11 -3 -15 -15 -12 -10 3 -21 0 -25 -6 -3 -7 -1 -10 6 -9 8 2 14 -7 15 -19 1
-13 -3 -23 -8 -23 -6 0 -7 7 -4 16 3 9 2 12 -5 9 -6 -4 -8 -13 -5 -21 7 -17
-5 -18 -24 -2 -12 11 -12 10 -1 -5 8 -9 20 -16 27 -15 7 2 13 -1 13 -7 1 -5
-3 -10 -8 -10 -5 0 -13 -4 -18 -9 -4 -5 -3 -6 3 -3 13 8 40 -20 30 -30 -3 -3
-6 -1 -6 5 0 7 -7 12 -16 12 -14 0 -14 -1 0 -16 9 -8 16 -20 16 -27 0 -6 -6
-3 -13 8 -11 14 -16 15 -22 5 -6 -9 -4 -11 5 -5 9 6 11 4 6 -4 -5 -7 -14 -10
-22 -7 -7 3 -16 1 -19 -5 -4 -5 -3 -9 2 -8 4 1 15 1 23 -1 11 -1 9 -4 -5 -10
-18 -8 -18 -9 5 -10 l25 -1 -25 -15 c-24 -15 -24 -15 -2 -10 20 4 21 2 11 -11
-10 -12 -10 -17 2 -25 11 -8 11 -9 -3 -4 -10 3 -18 1 -18 -4 0 -6 6 -10 13
-10 9 0 8 -3 -2 -9 -7 -5 -11 -14 -7 -19 4 -7 -1 -9 -13 -7 -15 3 -18 0 -14
-12 5 -12 3 -14 -8 -8 -11 7 -12 6 -2 -6 10 -12 10 -18 1 -27 -9 -9 -8 -12 6
-12 9 0 14 5 11 10 -3 6 -1 10 4 10 20 0 11 -20 -11 -30 -16 -6 -18 -9 -6 -9
17 -1 19 -24 3 -38 -4 -4 -5 -3 -1 4 3 6 2 14 -3 17 -5 4 -8 -2 -7 -11 2 -10
8 -18 14 -18 22 0 24 -15 1 -16 -13 0 -18 -3 -11 -6 6 -2 12 -12 12 -21 0 -15
-2 -15 -10 -2 -8 12 -10 9 -10 -13 0 -16 -4 -26 -10 -22 -6 3 -10 1 -10 -4 0
-6 5 -11 10 -11 6 0 10 -5 10 -11 0 -5 -4 -8 -9 -5 -16 10 -6 -33 11 -46 13
-10 15 -17 7 -28 -9 -12 -10 -12 -5 3 4 12 2 17 -6 14 -7 -2 -12 -11 -10 -20
2 -12 -3 -15 -19 -12 -12 2 -18 1 -15 -3 7 -7 11 -8 37 -11 6 0 1 -9 -11 -19
-18 -14 -19 -19 -7 -19 9 0 14 4 11 9 -3 4 0 8 5 8 6 0 11 -3 11 -7 0 -14 -17
-35 -26 -33 -5 1 -10 -4 -12 -12 -2 -9 0 -8 7 2 9 13 11 12 11 -5 1 -18 2 -17
16 5 10 16 13 18 8 5 -4 -11 -6 -28 -6 -38 0 -9 -4 -17 -9 -17 -6 0 -8 4 -5 8
3 5 -2 9 -10 9 -9 0 -11 -4 -5 -10 5 -5 7 -15 4 -23 -3 -9 2 -12 16 -9 12 2
19 0 16 -6 -4 -5 -10 -7 -15 -4 -12 7 -28 -17 -25 -37 2 -10 -2 -18 -8 -18 -7
0 -6 -4 3 -9 8 -6 18 -7 24 -4 5 3 6 1 2 -5 -4 -6 -14 -8 -24 -5 -16 6 -16 5
0 -13 14 -16 15 -23 5 -33 -9 -9 -9 -14 3 -22 12 -9 10 -10 -8 -6 -12 3 -22 1
-22 -4 0 -5 6 -9 14 -9 8 0 18 -4 21 -10 3 -5 0 -7 -8 -4 -8 3 -18 0 -23 -7
-4 -8 -3 -10 4 -5 7 4 12 2 12 -4 0 -6 5 -8 12 -4 7 4 8 3 4 -5 -4 -6 -13 -9
-19 -5 -7 3 -4 -1 6 -9 9 -8 17 -18 17 -23 0 -4 -5 -3 -12 4 -16 16 -25 15
-25 -3 0 -8 4 -12 9 -9 13 8 9 -21 -4 -35 -11 -11 -8 -12 12 -6 19 5 22 4 10
-4 -13 -10 -13 -12 0 -21 12 -8 12 -10 1 -10 -11 0 -11 -3 0 -17 13 -15 12
-15 -9 -4 -13 7 -28 10 -35 7 -7 -2 -5 -5 4 -5 9 -1 22 -7 28 -15 10 -12 9
-13 -8 -9 -16 4 -19 1 -14 -18 4 -15 3 -20 -5 -15 -8 4 -10 2 -6 -8 3 -8 13
-12 22 -9 14 4 14 3 3 -5 -13 -9 -13 -13 0 -28 13 -16 12 -16 -13 0 -15 10
-25 23 -21 29 3 6 1 7 -6 3 -9 -6 -9 -11 1 -23 7 -9 14 -24 14 -35 1 -10 3
-19 4 -20 1 -2 4 -16 6 -33 2 -22 1 -26 -6 -15 -8 13 -10 13 -10 -2 0 -9 5
-18 10 -20 6 -2 12 -13 15 -26 2 -12 0 -20 -4 -18 -5 3 -17 -4 -27 -17 -10
-12 -15 -19 -10 -15 4 4 14 2 21 -5 10 -9 9 -14 -4 -25 -9 -7 -11 -11 -5 -8 7
3 15 -1 18 -10 9 -23 7 -31 -3 -16 -6 11 -9 9 -13 -6 -5 -16 -2 -19 11 -15 14
6 14 4 -2 -14 -9 -11 -14 -23 -11 -26 4 -4 1 -14 -7 -24 -9 -11 -10 -14 -2 -9
8 4 13 2 13 -4 0 -7 7 -10 15 -7 8 4 17 2 20 -4 4 -5 3 -9 -2 -8 -28 5 -36 -2
-17 -16 18 -14 18 -14 -2 -9 -12 3 -25 0 -30 -7 -5 -9 -2 -11 9 -6 10 3 17 2
17 -3 0 -5 8 -7 18 -4 14 5 14 4 2 -4 -8 -6 -19 -8 -25 -5 -5 4 1 -6 15 -22
l25 -28 -27 17 c-27 18 -27 17 -23 -5 3 -12 -1 -29 -8 -38 -9 -12 -9 -13 0 -7
8 4 13 2 13 -4 0 -7 7 -10 17 -6 16 5 15 4 -1 -9 -14 -10 -16 -18 -9 -27 12
-15 13 -49 2 -42 -5 2 -6 12 -3 22 5 14 4 14 -4 3 -12 -17 -6 -37 14 -45 8 -3
14 -11 14 -18 0 -10 -2 -10 -9 1 -6 10 -13 10 -28 2 -11 -5 -24 -7 -28 -3 -5
4 -5 1 -1 -6 5 -8 13 -9 26 -2 14 7 20 6 24 -7 4 -9 4 -18 1 -21 -3 -3 -5 1
-6 9 0 8 -4 5 -8 -6 -11 -27 -2 -47 18 -41 13 5 13 4 -1 -8 -10 -7 -18 -19
-18 -27 0 -11 2 -11 11 1 9 13 10 13 6 -1 -3 -9 0 -23 6 -30 10 -11 9 -11 -4
-1 -14 10 -17 9 -22 -8 -3 -11 -1 -18 4 -14 5 3 9 0 9 -5 0 -10 -12 -14 -30
-13 -3 0 -4 -18 -2 -40 3 -27 0 -43 -9 -49 -8 -5 -9 -9 -3 -9 6 0 14 3 18 7
11 11 36 12 36 2 0 -6 -8 -9 -17 -7 -14 2 -17 -3 -15 -21 2 -13 -1 -21 -6 -17
-5 3 -15 0 -21 -7 -8 -10 -7 -14 4 -14 8 0 11 5 8 10 -3 6 -1 7 5 3 6 -4 9
-13 5 -21 -3 -9 1 -15 11 -15 10 0 14 -6 10 -17 -5 -17 -4 -17 9 0 10 12 17
14 22 8 3 -6 1 -11 -5 -11 -7 0 -10 -7 -7 -14 4 -11 1 -13 -10 -9 -11 4 -14 2
-9 -5 4 -7 15 -12 24 -12 15 0 15 -2 2 -11 -13 -9 -13 -10 0 -6 8 2 14 12 12
21 -3 15 -1 15 17 -1 22 -18 28 -29 12 -18 -5 3 -12 2 -14 -2 -7 -11 255 -10
270 0 7 5 13 5 13 0 0 -4 18 -9 40 -10 33 -2 38 0 33 15 -4 13 -2 13 10 -3 9
-11 17 -15 17 -9 0 18 29 25 48 14 14 -9 13 -10 -5 -5 -12 3 -24 2 -27 -3 -3
-5 15 -9 39 -8 29 0 46 5 50 14 4 12 9 12 28 -1 32 -20 156 -20 180 1 15 13
17 13 12 1 -4 -12 22 -14 172 -14 98 0 184 4 191 8 6 5 12 4 12 0 0 -11 211
-11 228 0 6 5 12 4 12 -1 0 -15 158 -11 171 4 14 17 29 18 29 3 0 -5 -4 -7
-10 -4 -5 3 -10 2 -10 -3 0 -6 24 -9 53 -9 43 2 52 5 51 19 -1 10 2 15 7 12 5
-3 9 -11 9 -18 0 -17 174 -16 191 2 16 15 29 16 29 1 0 -5 -4 -7 -10 -4 -5 3
-10 2 -10 -3 0 -6 24 -9 53 -9 43 2 52 5 51 19 -1 10 2 15 7 12 5 -3 9 -11 9
-18 0 -17 174 -16 191 2 16 15 29 16 29 1 0 -5 -4 -7 -10 -4 -5 3 -10 2 -10
-3 0 -6 24 -9 53 -9 43 2 52 5 51 19 -1 10 2 15 7 12 5 -3 9 -11 9 -18 0 -18
171 -16 193 3 9 7 14 18 10 24 -4 6 -1 7 6 2 9 -5 10 -10 2 -18 -6 -6 -11 -14
-11 -17 0 -3 58 -6 130 -6 102 0 131 3 135 14 4 12 9 12 28 -1 32 -20 156 -20
180 1 15 13 17 13 12 1 -4 -12 22 -14 172 -14 98 0 184 4 191 8 6 5 12 4 12 0
0 -11 211 -11 228 0 6 5 12 4 12 -1 0 -15 119 -10 125 6 4 12 8 12 28 -1 50
-33 213 -11 190 26 -3 6 -1 7 6 3 9 -6 9 -11 0 -22 -6 -8 -9 -17 -5 -21 3 -4
12 1 19 10 9 13 16 14 27 6 12 -9 11 -10 -5 -4 -11 3 -16 2 -11 -2 4 -4 57 -8
116 -9 86 0 111 3 115 14 4 12 9 12 30 -2 29 -19 56 -21 73 -4 7 7 12 8 12 2
0 -11 209 -13 228 -1 6 5 12 4 12 -1 0 -15 119 -10 125 6 4 12 8 12 28 -1 32
-20 156 -20 180 1 15 13 17 13 12 1 -4 -12 28 -14 224 -14 171 0 233 3 242 13
16 15 29 16 29 1 0 -5 -4 -7 -10 -4 -5 3 -10 2 -10 -3 0 -6 24 -9 53 -9 43 2
52 5 51 19 -1 10 2 15 7 12 5 -3 9 -11 9 -18 0 -17 174 -16 191 2 16 15 29 16
29 1 0 -5 -4 -7 -10 -4 -5 3 -10 2 -10 -3 0 -6 24 -9 53 -9 43 2 52 5 51 19
-1 10 2 15 7 12 5 -3 9 -11 9 -18 0 -17 174 -16 191 2 16 15 29 16 29 1 0 -5
-4 -7 -10 -4 -5 3 -10 2 -10 -3 0 -6 24 -9 53 -9 43 2 52 5 51 19 -1 10 2 15
7 12 5 -3 9 -11 9 -18 0 -17 174 -16 191 2 16 15 29 16 29 1 0 -5 -4 -7 -10
-4 -5 3 -10 2 -10 -3 0 -6 24 -9 53 -9 43 2 52 5 51 19 -1 10 2 15 7 12 5 -3
9 -11 9 -17 0 -16 70 -19 88 -5 6 6 12 6 12 2 0 -12 210 -12 228 -1 6 5 12 4
12 -1 0 -15 119 -10 125 6 4 12 8 12 28 -1 32 -20 156 -20 180 1 15 13 17 13
12 1 -4 -12 22 -14 172 -14 98 0 184 4 191 8 6 5 12 4 12 0 0 -11 211 -11 228
0 6 5 12 4 12 0 0 -13 51 -14 66 -2 8 6 14 7 14 3 0 -12 210 -12 227 -1 7 5
13 4 13 -1 0 -15 119 -10 125 6 4 12 8 12 28 -1 50 -33 213 -11 190 26 -3 6
-1 7 6 3 9 -6 9 -11 0 -22 -6 -8 -9 -17 -5 -21 3 -4 12 1 19 10 9 13 16 14 27
6 13 -9 12 -10 -3 -5 -10 3 -16 2 -13 -3 3 -4 61 -7 130 -7 103 1 127 4 143
19 11 9 23 14 26 10 4 -3 7 -1 7 5 0 7 -6 12 -12 12 -9 0 -8 4 2 10 10 6 11
10 3 10 -7 0 -13 4 -13 10 0 5 6 7 14 4 8 -3 17 0 22 7 4 8 3 10 -4 5 -7 -4
-12 -2 -12 3 0 6 9 11 19 11 11 0 23 4 26 10 3 6 -1 7 -9 4 -12 -5 -15 0 -14
19 1 14 6 23 10 21 5 -3 6 -10 3 -15 -4 -5 2 -6 11 -2 11 4 13 8 6 11 -7 2
-12 8 -12 13 0 6 5 7 10 4 6 -3 10 -1 10 4 0 6 -5 11 -11 11 -5 0 -7 5 -4 10
4 6 12 7 18 3 7 -4 6 0 -2 10 -15 19 -26 23 -15 5 4 -7 3 -8 -5 -4 -8 5 -9 12
-3 19 5 7 8 20 7 30 -2 9 1 15 6 11 5 -3 9 0 9 5 0 6 -6 11 -12 11 -9 0 -8 4
2 10 13 9 13 10 0 11 -8 0 -4 5 10 9 24 8 24 8 3 9 -13 1 -23 6 -23 11 0 6 10
10 23 10 18 0 19 2 7 10 -10 6 -11 10 -2 10 6 0 12 5 12 11 0 5 -6 7 -12 4 -7
-4 -3 2 10 13 21 19 31 39 14 28 -4 -2 -14 4 -21 16 -7 11 -8 17 -2 13 6 -3
11 -1 11 5 0 6 4 9 9 6 10 -7 9 13 -2 30 -4 7 0 15 9 18 8 3 12 2 9 -3 -3 -5
-1 -12 4 -15 11 -7 9 13 -2 32 -10 15 1 35 14 27 5 -3 6 2 2 11 -5 13 -3 15 8
9 8 -5 4 3 -7 16 -24 27 -28 59 -7 59 7 0 13 5 13 11 0 5 -4 8 -8 5 -4 -2 -14
0 -22 6 -12 8 -11 9 4 4 14 -5 17 -2 12 10 -5 13 -4 14 7 6 10 -9 14 -9 14 1
0 35 14 102 22 106 5 3 2 13 -7 21 -14 13 -15 12 -9 -3 3 -9 1 -19 -6 -23 -7
-4 -9 -4 -5 1 4 4 3 14 -3 22 -8 9 -8 13 -1 13 6 0 9 9 7 19 -3 15 1 18 12 14
10 -4 14 -2 9 5 -3 6 -1 14 5 18 7 4 9 3 6 -2 -3 -6 -2 -16 3 -24 6 -9 8 -2 6
20 -2 19 1 40 6 47 6 7 4 14 -3 19 -8 5 -9 3 -4 -6 6 -9 4 -11 -4 -6 -7 5 -10
11 -7 14 3 3 0 12 -7 21 -11 14 -10 14 6 2 15 -12 17 -11 17 8 0 12 5 19 10
16 6 -3 10 3 10 15 0 14 4 19 13 14 8 -5 7 -2 -2 9 -8 10 -11 20 -8 24 4 3 2
14 -3 24 -7 12 -6 19 3 22 6 3 3 6 -8 7 -18 1 -19 1 -2 11 9 5 21 8 26 4 5 -3
13 0 17 6 4 8 3 9 -4 5 -7 -4 -12 -1 -12 9 0 9 4 14 9 11 4 -3 7 9 6 27 -2 18
-4 32 -5 32 -1 0 -3 13 -4 28 -2 20 1 26 10 23 8 -3 13 -2 13 2 -3 20 2 32 12
26 8 -5 8 -1 0 14 -8 15 -8 21 1 24 7 3 13 16 13 31 1 14 -2 24 -7 21 -4 -3
-8 0 -8 6 0 6 -5 8 -12 4 -7 -5 -8 -3 -4 5 5 7 14 10 21 8 8 -4 11 3 9 19 -1
13 2 26 7 30 5 3 7 10 4 15 -4 5 0 9 7 9 8 0 9 3 3 8 -5 4 -16 14 -22 23 -10
13 -10 16 2 16 8 0 12 -4 9 -8 -2 -4 1 -11 8 -15 7 -4 10 -3 5 1 -4 5 1 18 10
29 17 20 17 20 1 7 -13 -10 -18 -10 -18 -2 0 7 -5 9 -12 5 -10 -6 -10 -5 -1 7
10 12 10 18 0 29 -10 10 -9 11 2 5 11 -6 13 -4 8 8 -3 9 -2 19 3 22 6 4 10 11
10 16 0 6 -5 7 -11 3 -7 -4 -10 -1 -7 7 3 8 11 13 17 11 7 -1 10 2 6 8 -3 5
-1 10 4 10 6 0 11 5 11 12 0 9 -3 9 -12 0 -15 -15 -28 -15 -28 0 0 6 3 8 7 5
12 -13 33 16 33 45 0 21 4 27 13 22 8 -5 7 -2 -2 9 -8 10 -11 20 -7 24 3 3 6
1 6 -6 0 -19 23 -8 26 12 1 9 -1 15 -6 12 -4 -3 -6 5 -2 17 4 16 2 19 -9 13
-12 -8 -12 -6 0 8 7 9 11 17 7 17 -3 0 11 26 31 57 20 32 29 52 20 44 -15 -12
-17 -11 -17 13 0 19 -4 25 -12 21 -7 -4 -4 1 6 9 20 16 20 16 0 17 -18 0 -18
1 1 8 11 5 23 7 27 5 4 -3 9 0 13 5 3 6 -3 8 -14 6 -11 -2 -22 2 -24 9 -4 9 3
12 18 11 20 -3 23 1 19 22 -3 18 -1 23 8 17 10 -6 9 -3 -1 9 -12 15 -11 17 3
17 18 0 21 15 5 25 -7 5 -5 13 5 24 9 10 13 21 9 24 -3 4 -1 7 5 7 15 0 15
-13 0 -28 -7 -7 -9 -12 -4 -12 25 0 42 56 21 73 -6 4 -1 7 10 6 34 -2 38 0 24
18 -13 15 -12 15 7 5 16 -9 21 -8 21 3 0 8 -3 12 -7 10 -4 -2 -7 2 -7 9 0 8 8
11 21 8 21 -4 21 -4 1 12 -20 16 -20 16 3 22 15 4 21 12 18 21 -3 8 -2 11 3 8
5 -3 13 0 17 6 4 7 3 9 -2 6 -6 -3 -16 -2 -24 4 -12 7 -11 9 5 9 20 1 20 1 1
15 -19 14 -11 21 18 16 5 -1 6 7 3 19 -3 11 0 23 5 27 7 3 8 1 4 -5 -4 -7 -2
-12 3 -12 15 0 14 23 -1 39 -11 11 -9 12 8 3 23 -12 55 0 34 13 -9 6 -9 10 1
16 11 7 11 9 1 9 -7 0 -10 5 -6 12 4 6 3 8 -4 4 -6 -3 -13 -2 -16 3 -4 5 5 8
19 6 22 -2 23 0 13 13 -11 13 -10 15 4 9 10 -3 20 -2 23 4 4 5 1 8 -6 7 -6 -2
-14 3 -17 11 -3 9 0 11 9 6 8 -5 5 2 -6 15 l-20 23 24 -13 c19 -10 22 -10 15
1 -4 7 -9 25 -10 39 -1 14 0 19 3 13 9 -23 25 -14 17 9 -6 19 -4 21 8 13 7 -6
6 -3 -4 7 -13 12 -15 17 -6 21 10 3 10 7 0 20 -12 14 -10 15 15 11 22 -4 25
-3 16 7 -10 10 -9 17 5 33 16 18 16 19 0 13 -10 -3 -20 -1 -24 5 -4 6 -3 8 3
5 6 -4 19 0 29 8 18 15 18 15 -1 8 -18 -6 -18 -5 -6 10 11 14 11 17 0 18 -8 1
-18 1 -23 0 -5 -1 -4 5 4 13 7 9 18 16 24 16 6 0 4 -5 -4 -10 -8 -5 -10 -10
-5 -10 6 0 16 4 24 9 11 7 9 10 -8 16 l-22 7 22 19 c12 10 18 19 13 19 -6 0
-15 -5 -22 -12 -9 -9 -12 -9 -12 0 0 6 9 17 20 24 24 15 26 25 5 25 -8 0 -11
-5 -8 -10 3 -6 1 -7 -5 -3 -9 5 -9 12 0 26 7 10 15 17 19 14 4 -2 11 1 15 7 4
7 3 9 -4 5 -6 -3 -14 0 -19 8 -4 8 -12 15 -18 15 -5 0 -11 8 -12 18 -2 15 -1
15 6 -2 9 -20 9 -20 17 -1 5 13 3 21 -5 24 -8 3 -7 8 5 16 13 10 14 15 4 21
-9 5 -11 4 -6 -3 4 -7 2 -12 -4 -12 -7 0 -10 6 -7 13 2 6 0 20 -5 30 -5 9 -5
17 -1 16 24 -4 25 4 3 21 -20 16 -21 19 -5 14 11 -4 17 -4 13 1 -4 4 0 13 9
20 13 9 13 14 3 20 -8 5 -11 4 -7 -2 3 -5 0 -10 -8 -10 -10 0 -12 4 -5 12 6 7
8 19 4 28 -3 8 -1 18 5 22 6 3 9 0 5 -8 -3 -8 -1 -18 4 -21 5 -3 8 14 7 39 -2
25 1 48 6 51 5 3 6 10 3 16 -4 7 -2 8 5 4 7 -5 9 -12 3 -19 -15 -20 -11 -46 7
-39 10 4 11 7 3 10 -7 2 -12 8 -12 13 0 6 4 8 9 5 11 -7 9 13 -3 32 -5 8 -1
21 10 33 9 10 14 19 10 19 -4 0 -16 -10 -27 -22 -10 -13 -18 -17 -19 -10 0 6
4 12 9 12 5 0 12 11 15 25 4 14 14 25 24 26 10 0 12 3 5 6 -7 2 -13 9 -13 14
0 6 4 8 8 5 4 -2 9 4 9 15 1 10 -3 19 -8 19 -6 0 -7 5 -4 10 3 5 -1 10 -9 10
-9 0 -16 5 -16 11 0 5 3 8 8 6 4 -3 7 6 7 19 0 13 -5 22 -10 20 -15 -6 -10 51
7 71 9 12 9 15 1 9 -12 -6 -15 0 -12 20 0 4 -5 11 -13 15 -10 7 -10 9 0 9 7 0
10 5 6 12 -4 6 -3 8 4 4 6 -3 9 -15 7 -26 -2 -11 0 -20 4 -20 5 0 8 14 7 30
-1 27 -7 35 -28 31 -13 -2 -9 9 13 32 20 21 21 21 11 1 -8 -16 -8 -21 3 -21 7
0 11 6 8 14 -3 7 -1 13 4 13 5 0 10 7 10 15 0 8 -4 12 -8 10 -13 -9 -16 45 -3
62 16 22 17 33 3 33 -5 0 -7 -4 -4 -10 3 -5 1 -10 -4 -10 -6 0 -11 7 -11 16 0
8 -4 13 -9 9 -20 -11 -21 15 -2 32 11 9 18 20 15 25 -3 5 0 16 8 25 8 10 8 14
1 10 -6 -4 -14 -3 -18 3 -4 6 -11 8 -16 5 -5 -4 -9 -1 -9 5 0 7 6 10 14 7 8
-3 20 2 28 11 12 15 11 16 -4 3 -16 -12 -18 -11 -18 3 0 11 -4 14 -12 10 -10
-6 -10 -4 -2 7 11 13 11 29 1 74 -2 11 0 25 5 32 6 8 2 11 -14 9 -17 -2 -24 2
-24 15 0 10 4 15 8 13 13 -8 9 11 -4 26 -11 12 -10 12 3 2 14 -11 17 -9 17 13
0 22 -3 24 -17 13 -12 -9 -11 -7 2 9 14 16 15 23 6 29 -8 5 -10 3 -4 -6 5 -9
4 -11 -4 -6 -8 5 -5 16 11 39 20 29 20 30 2 14 -11 -9 -25 -17 -30 -17 -5 0
-4 4 1 8 6 4 16 18 24 32 13 22 12 24 -1 13 -8 -7 -19 -9 -23 -5 -5 4 -4 0 0
-8 8 -13 7 -13 -8 -1 -18 15 -23 26 -7 16 6 -3 9 4 9 17 -1 13 0 29 2 37 2 7
-3 16 -11 18 -11 3 -11 2 -3 -4 9 -6 6 -12 -10 -22 -20 -13 -21 -13 -8 2 7 10
10 17 6 17 -4 0 -2 7 5 15 11 13 10 14 -5 9 -13 -5 -16 -4 -11 4 4 7 0 15 -9
18 -10 4 -15 14 -12 26 5 17 3 17 -11 6 -12 -10 -14 -10 -8 0 4 7 2 12 -4 12
-6 0 -8 4 -5 10 3 6 2 10 -4 10 -5 0 -13 9 -16 21 -6 17 -9 18 -22 7 -15 -12
-15 -10 -4 10 6 12 8 22 4 21 -17 -3 -33 1 -31 9 4 9 -42 55 -48 49 -3 -3 6
-14 20 -25 14 -10 23 -22 19 -26 -3 -3 -13 3 -20 14 -8 11 -19 18 -24 14 -5
-3 -9 -2 -8 3 4 22 -2 34 -13 27 -8 -5 -8 -2 1 10 8 9 10 16 5 15 -22 -4 -34
2 -34 17 0 10 -5 14 -15 10 -8 -3 -22 -9 -30 -12 -8 -3 -15 -1 -15 6 0 6 5 8
10 5 6 -3 10 1 10 9 0 9 -7 13 -18 11 -21 -4 -64 29 -54 41 4 5 -2 2 -12 -6
-11 -8 -17 -10 -13 -4 10 17 -22 57 -36 45 -8 -6 -19 -4 -32 5 -17 13 -18 16
-5 24 20 13 4 13 -20 0 -17 -9 -18 -8 -13 7 6 15 4 16 -9 5 -18 -14 -34 0 -22
19 5 8 1 8 -14 0 -30 -16 -39 -14 -16 4 18 15 18 15 0 8 -14 -4 -17 -3 -12 6
4 6 4 11 -1 10 -19 -3 -34 2 -29 9 3 5 -1 9 -9 9 -8 0 -11 -5 -8 -11 4 -6 0
-5 -9 1 -8 7 -18 10 -21 6 -4 -3 -7 -1 -7 6 0 7 -4 9 -10 6 -5 -3 -10 1 -10 9
0 10 7 13 20 11 11 -2 18 0 15 5 -6 9 -37 6 -58 -6 -9 -6 -9 -4 1 8 10 13 10
18 1 24 -8 4 -9 3 -5 -4 4 -7 2 -12 -3 -12 -6 0 -11 5 -11 10 0 6 -6 10 -14
10 -8 0 -22 10 -30 22 -9 12 -16 17 -16 10 0 -6 -7 -12 -16 -12 -8 0 -12 5 -9
10 6 9 -8 14 -27 11 -5 0 -8 3 -8 9 0 5 -5 10 -11 10 -5 0 -7 -5 -3 -12 4 -7
3 -8 -4 -4 -7 4 -12 15 -13 24 0 11 -3 12 -6 5 -2 -7 -9 -13 -14 -13 -6 0 -7
5 -4 10 8 13 -18 13 -31 0 -7 -7 -11 -6 -11 4 0 8 4 13 9 10 13 -8 9 6 -5 19
-16 15 -35 20 -66 18 -24 -1 -24 -1 -5 13 10 8 16 18 11 22 -4 4 -7 2 -7 -4 0
-7 -8 -12 -18 -12 -10 0 -23 -5 -30 -12 -8 -8 -12 -9 -12 -1 0 6 6 13 13 16 9
3 9 8 -2 18 -12 12 -13 12 -6 -1 7 -12 6 -13 -7 -3 -8 7 -18 10 -21 6 -4 -3
-7 -1 -7 5 0 7 -6 12 -14 12 -8 0 -16 5 -18 11 -3 9 -21 15 -50 18 -5 1 -8 9
-8 19 -1 15 -2 15 -17 -3 -12 -15 -14 -16 -10 -3 6 17 -17 33 -35 22 -5 -3
-12 3 -15 15 -5 19 -15 25 -35 22 -5 0 -8 4 -8 10 0 8 -4 8 -14 0 -12 -10 -14
-9 -10 6 3 11 -3 27 -16 38 -22 20 -54 30 -44 14 3 -5 0 -9 -5 -9 -6 0 -11 6
-11 14 0 8 -7 17 -16 20 -9 3 -12 11 -8 18 4 7 -5 2 -20 -12 -22 -20 -26 -21
-20 -6 6 15 4 17 -6 11 -8 -5 -11 -4 -6 3 10 16 -13 26 -29 12 -12 -10 -13 -8
-10 8 3 15 -2 19 -21 16 -13 -1 -22 1 -19 6 3 5 -2 15 -10 23 -8 9 -15 21 -15
27 0 6 -4 8 -10 5 -5 -3 -10 -1 -10 4 0 6 -5 11 -11 11 -5 0 -7 -5 -3 -12 4
-6 3 -8 -4 -4 -6 3 -9 15 -7 26 2 13 -1 17 -10 14 -8 -3 -11 -13 -9 -22 3 -9
-1 -7 -8 6 -8 12 -18 19 -23 15 -5 -4 -4 -1 3 8 10 13 8 19 -8 34 -11 10 -20
15 -20 10 0 -4 8 -14 18 -22 15 -12 14 -12 -10 -2 -18 8 -24 17 -21 27 4 10 2
13 -5 8 -7 -4 -12 -1 -12 9 0 10 5 13 12 9 6 -4 8 -3 5 4 -4 5 -18 9 -32 7
-14 -1 -28 2 -32 8 -3 6 -1 7 5 3 17 -10 15 3 -4 21 -12 13 -18 13 -27 3 -7
-7 -7 -10 -1 -7 6 3 11 0 11 -8 0 -11 -4 -12 -14 -4 -7 6 -10 16 -6 22 4 6 0
8 -9 5 -8 -4 -15 0 -15 8 0 7 5 10 10 7 6 -3 7 -1 3 5 -3 6 -16 9 -27 7 -17
-3 -19 0 -13 18 6 19 5 20 -8 9 -13 -11 -20 -8 -42 19 -16 18 -32 29 -41 25
-8 -3 -17 0 -21 6 -4 7 -3 8 4 4 7 -4 12 -3 12 2 0 9 -36 25 -51 24 -3 -1 -6
6 -7 14 -6 45 -4 43 -28 27 -21 -13 -22 -13 -17 6 3 13 1 21 -7 21 -7 0 -18 8
-25 17 -10 14 -16 15 -28 5 -12 -10 -14 -9 -13 10 1 18 -6 24 -29 29 -16 4
-26 7 -22 8 5 0 2 8 -7 16 -17 18 -30 20 -20 3 4 -7 3 -8 -4 -4 -6 4 -9 13 -6
21 4 10 -2 13 -21 10 -20 -2 -29 3 -33 17 -2 11 -10 17 -18 14 -9 -3 -11 0 -7
11 5 12 3 14 -7 8 -10 -6 -12 -4 -7 9 4 10 1 19 -8 22 -8 4 -12 11 -8 17 4 6
1 7 -7 2 -10 -6 -9 -11 6 -23 18 -14 18 -14 1 -8 -10 3 -21 6 -23 6 -2 0 -4 9
-4 21 0 11 -4 17 -10 14 -5 -3 -10 -1 -10 5 0 6 -5 8 -12 4 -7 -5 -8 -3 -2 7
12 20 14 40 3 33 -5 -3 -7 -10 -4 -15 10 -15 -2 -10 -16 8 -8 9 -9 14 -3 10 7
-4 14 0 17 8 4 9 1 12 -9 8 -8 -3 -14 1 -14 11 0 9 -5 16 -11 16 -5 0 -7 -6
-3 -12 5 -8 1 -8 -12 2 -29 22 -30 24 -11 17 9 -4 17 -2 17 3 0 6 -9 10 -21
10 -11 0 -18 4 -14 9 3 5 1 12 -5 16 -6 4 -8 11 -5 16 3 5 -1 6 -9 3 -9 -3
-16 -11 -16 -17 0 -6 -3 -7 -6 -4 -4 4 -1 13 6 22 12 15 3 21 -24 16 -5 -1 -4
4 2 12 14 16 6 28 -14 20 -13 -5 -19 8 -15 31 1 5 -5 6 -14 2 -11 -4 -14 -2
-9 6 5 7 2 9 -9 5 -12 -4 -14 -2 -10 10 4 11 2 14 -5 9 -7 -4 -13 -2 -13 3 -3
20 -5 26 -18 49 -11 20 -15 21 -28 10 -13 -10 -12 -6 3 17 16 26 16 28 1 16
-13 -10 -17 -10 -17 -1 0 9 -4 9 -17 -1 -14 -12 -16 -12 -8 1 5 8 10 23 10 32
1 14 -1 15 -12 7 -10 -9 -13 -8 -13 4 0 9 -8 21 -17 27 -17 11 -17 11 0 6 9
-3 17 -1 17 4 0 6 -9 10 -20 10 -14 0 -18 5 -13 17 5 12 3 14 -7 8 -10 -6 -12
-4 -7 8 3 8 0 18 -8 21 -9 3 -12 0 -9 -8 3 -7 -2 -16 -12 -20 -13 -5 -14 -3
-6 6 6 7 11 18 11 23 1 6 5 10 10 10 5 0 13 4 18 8 4 5 4 8 -2 7 -5 -1 -19 -2
-30 -1 -17 1 -18 3 -5 11 11 7 11 10 2 10 -8 0 -10 5 -6 13 4 6 -3 3 -17 -8
-13 -11 -18 -13 -11 -5 6 8 12 21 12 30 0 13 -1 13 -10 0 -8 -13 -10 -13 -10
2 0 9 -8 22 -17 28 -15 10 -15 11 -1 6 14 -4 16 3 9 32 -1 1 -10 -2 -22 -8
-19 -11 -20 -10 -8 12 11 21 11 22 -5 9 -14 -12 -16 -12 -11 1 3 8 -4 23 -17
34 l-23 19 18 -22 c14 -16 15 -23 6 -29 -7 -4 -10 -3 -6 3 8 13 -17 36 -28 25
-5 -4 -5 -1 -1 5 4 7 2 23 -5 35 l-12 22 -18 -22 c-16 -20 -18 -21 -18 -5 -1
43 -5 50 -22 46 -9 -3 -20 1 -24 8 -6 8 -4 10 5 4 8 -5 11 -4 7 2 -3 5 -21 8
-39 5 -31 -4 -32 -3 -13 11 11 8 17 19 12 23 -4 4 -7 2 -7 -4 0 -7 -7 -12 -16
-12 -8 0 -13 4 -10 9 7 11 -22 23 -36 14 -6 -3 -8 -1 -4 5 3 6 2 14 -4 17 -8
5 -7 11 1 21 11 13 2 19 -23 15 -5 0 -8 4 -8 10 0 6 7 9 15 6 8 -4 17 -1 21 5
4 6 3 8 -3 5 -6 -4 -19 1 -29 9 -10 9 -14 13 -8 10 15 -8 26 21 12 30 -7 5 -8
2 -3 -7 6 -11 5 -12 -5 -2 -8 7 -15 23 -17 35 -2 18 -1 19 6 8 5 -8 7 -18 4
-24 -3 -5 -1 -6 6 -2 6 4 9 12 6 17 -4 5 -1 9 5 9 6 0 4 8 -6 17 -16 17 -16
18 7 24 19 6 12 13 -11 11 -3 0 -5 10 -5 23 0 13 2 22 5 20 3 -2 3 17 1 41 -1
24 -6 42 -10 40 -4 -3 -7 6 -7 19 0 16 5 21 16 18 10 -3 9 0 -4 11 -10 8 -24
12 -30 9 -6 -4 -5 1 3 11 11 13 11 20 3 28 -14 14 -16 38 -2 38 5 0 7 -8 4
-17 -5 -15 -4 -15 4 -4 7 9 7 21 2 31 -5 10 -6 21 -2 26 4 5 0 2 -9 -8 -15
-16 -18 -16 -23 -2 -4 10 -2 13 6 8 8 -5 9 -2 5 10 -4 9 -3 14 2 11 5 -3 12
-1 16 5 4 6 11 7 17 4 7 -4 8 -2 4 4 -4 6 -13 9 -20 6 -8 -3 -17 -1 -21 5 -4
7 0 8 11 4 12 -4 15 -2 12 8 -3 8 -14 13 -24 11 -15 -2 -16 -1 -4 7 8 5 18 7
22 5 4 -3 5 3 1 13 -6 16 -5 17 13 3 12 -9 10 -4 -6 14 -19 22 -21 28 -7 23 9
-4 17 -2 17 3 0 6 -4 11 -10 11 -5 1 -14 2 -19 3 -5 0 -13 4 -17 8 -3 4 3 5
15 3 15 -3 19 0 14 8 -10 16 -11 47 -2 42 4 -3 10 2 13 10 3 9 -1 18 -9 21 -8
4 -15 10 -15 16 0 5 4 7 8 4 4 -2 14 0 22 6 13 8 13 9 -1 5 -9 -3 -22 -1 -30
4 -11 7 -10 9 6 10 11 1 24 1 28 0 5 -1 6 3 2 8 -3 6 -13 7 -23 4 -14 -5 -15
-3 -4 8 14 15 16 33 3 25 -5 -3 -11 1 -14 9 -4 10 -1 12 11 8 9 -3 14 -3 10 2
-4 4 -2 15 5 24 10 14 10 14 -4 3 -14 -10 -18 -10 -23 3 -3 9 -2 13 3 10 5 -3
12 -1 16 5 3 5 2 10 -3 10 -6 0 -13 7 -16 16 -5 14 -4 15 8 5 10 -8 16 -9 21
-1 3 5 -1 13 -9 16 -9 3 -16 10 -16 16 0 5 4 7 9 4 4 -3 6 6 3 19 -2 14 -9 25
-15 25 -6 0 -7 3 -4 6 10 10 38 -17 30 -29 -3 -6 -1 -7 6 -3 12 8 7 19 -28 55
-11 12 -11 16 0 25 20 16 47 51 32 42 -8 -4 -13 -2 -13 4 0 7 -7 10 -17 6 -16
-5 -16 -5 0 8 18 14 18 15 0 26 -16 10 -16 11 0 6 10 -3 17 0 18 9 1 15 4 28
9 43 1 4 2 11 1 15 -1 5 10 0 25 -12 33 -26 47 -27 39 -2 -3 11 0 23 7 27 18
12 78 13 78 1 0 -6 4 -6 13 0 16 13 47 12 47 -1 0 -6 5 -4 10 4 9 13 10 13 10
0 0 -13 2 -13 9 0 6 8 8 17 5 21 -2 4 11 6 30 5 19 -1 32 2 30 6 -3 5 -1 8 5
8 6 0 8 7 5 15 -4 9 0 15 10 15 9 0 16 5 16 11 0 6 8 8 19 4 22 -7 37 10 20
21 -8 4 -9 3 -5 -4 4 -7 2 -12 -3 -12 -14 0 -14 37 0 45 6 4 8 14 4 23 -5 12
-1 12 17 -4 l22 -19 -16 26 c-13 20 -14 26 -3 26 8 0 12 -4 9 -9 -3 -4 2 -8
10 -8 17 0 17 20 1 32 -5 4 1 8 14 8 24 0 24 0 5 15 -19 14 -18 14 2 10 17 -3
21 1 17 16 -3 11 0 19 7 19 7 0 9 8 5 21 -6 16 -4 20 6 13 10 -6 10 -3 -1 11
-9 11 -10 16 -2 11 7 -4 12 -2 12 4 0 6 4 8 10 5 6 -3 7 1 4 9 -3 9 -11 13
-18 10 -6 -3 0 3 13 14 15 12 21 24 16 32 -5 9 -4 11 3 6 7 -4 12 -1 12 9 0
10 -5 13 -12 9 -7 -4 -8 -3 -4 5 4 6 12 9 17 6 8 -6 13 9 10 29 -1 5 4 13 11
18 9 6 6 7 -8 4 -14 -4 -21 -2 -21 8 0 9 4 13 9 10 4 -3 8 -1 8 5 0 5 9 13 21
16 13 5 17 10 11 18 -5 7 -8 20 -6 31 1 10 -2 29 -7 43 -6 16 -5 22 1 18 6 -3
10 -1 10 4 0 6 5 11 11 11 8 0 8 -4 0 -14 -8 -10 -9 -16 -1 -21 6 -4 9 -1 8 7
-2 7 3 12 11 10 12 -3 12 0 2 11 -9 12 -9 16 1 21 7 3 2 4 -11 2 l-24 -5 26
27 c23 25 24 29 11 47 -9 11 -20 19 -25 17 -6 -1 -8 2 -4 8 3 6 11 8 16 5 5
-4 9 -2 9 4 0 5 -8 15 -17 21 -16 10 -16 11 3 7 12 -3 21 1 21 8 0 7 -6 11
-12 8 -8 -2 -12 5 -11 19 1 13 -1 31 -6 40 -6 13 -5 16 7 12 8 -3 12 -11 8
-17 -4 -6 -1 -7 6 -3 9 6 8 13 -6 29 -10 11 -13 17 -7 14 13 -8 23 11 17 31
-3 6 -10 9 -16 6 -8 -5 -8 -2 1 7 6 7 12 16 12 21 0 4 -6 6 -12 4 -7 -1 -10
-1 -5 1 4 3 4 10 1 15 -4 7 -2 8 4 4 7 -4 12 -2 12 3 0 6 -6 11 -12 11 -9 0
-8 4 2 10 13 8 13 10 -2 10 -9 0 -19 4 -22 9 -4 5 2 7 13 4 10 -3 22 1 26 8 5
8 4 10 -4 5 -6 -4 -18 -2 -26 4 -12 10 -12 17 -3 34 10 19 10 20 -6 7 -15 -12
-16 -12 -10 5 4 10 11 24 15 30 5 6 3 11 -6 11 -8 0 -12 -4 -9 -9 3 -4 1 -8
-4 -8 -5 0 -14 12 -20 26 -7 14 -17 22 -22 19 -14 -9 -13 8 2 23 9 9 6 11 -10
7 -12 -2 -26 -6 -31 -10 -5 -3 -13 -1 -16 5 -4 6 -1 9 6 8 6 -2 14 3 16 10 3
7 1 12 -4 11 -19 -3 -43 2 -41 9 5 15 -28 49 -45 46 -9 -1 -15 2 -11 7 3 5 10
7 15 4 5 -4 9 -2 9 3 0 6 -6 12 -13 15 -9 3 -12 16 -9 36 2 17 8 29 12 26 5
-3 11 -1 14 4 4 5 -2 8 -11 6 -26 -4 -36 5 -22 21 9 11 8 14 -2 14 -10 0 -11
2 -2 8 6 4 14 20 17 35 3 15 1 25 -3 23 -4 -3 -6 20 -5 50 2 51 -3 59 -28 55
-5 0 -8 4 -8 10 0 6 7 8 16 5 14 -5 15 -4 4 9 -8 10 -9 15 -1 15 6 0 11 5 11
10 0 6 -5 9 -12 8 -14 -3 -19 60 -6 68 13 8 9 54 -4 54 -7 1 -2 7 12 16 22 13
22 14 3 9 -15 -4 -21 -2 -19 9 1 9 6 19 11 23 4 4 5 2 0 -6 -5 -9 -4 -12 3 -7
6 4 9 13 5 22 -4 12 -8 12 -22 2 -13 -10 -14 -10 -4 1 6 7 9 21 6 30 -4 14 -3
14 6 1 8 -12 10 -11 8 8 -1 13 -6 21 -14 18 -7 -3 -15 0 -19 6 -4 6 -3 9 2 6
5 -3 18 -2 29 3 17 6 17 8 3 8 -10 1 -18 4 -18 8 0 3 8 16 18 27 16 20 16 20
0 7 -12 -9 -18 -10 -18 -2 0 21 -2 26 -13 41 -10 13 -10 13 6 1 12 -9 17 -10
17 -2 0 7 4 10 8 7 5 -3 9 1 9 9 0 9 -4 11 -11 6 -7 -5 -18 -1 -29 9 -12 12
-15 20 -8 25 6 3 11 11 11 16 0 6 -4 8 -9 4 -14 -8 -21 9 -11 25 5 9 5 19 -2
27 -8 10 -7 12 6 7 19 -7 19 -9 5 -37 -10 -21 -10 -21 5 -3 19 23 20 32 6 41
-6 4 -8 10 -5 15 3 5 0 12 -6 16 -7 4 -9 3 -6 -3 3 -5 0 -10 -8 -10 -11 0 -12
4 -4 13 6 7 19 11 30 9 11 -2 17 0 14 6 -4 5 -11 6 -17 3 -6 -4 -9 4 -8 17 4
40 1 51 -12 43 -7 -5 -8 -3 -4 5 5 7 15 10 23 6 13 -4 13 -3 4 9 -9 11 -9 15
1 19 10 4 10 6 1 6 -7 1 -13 8 -13 17 0 9 -10 25 -22 35 -16 15 -18 19 -5 19
8 0 18 -6 20 -12 4 -10 6 -10 6 0 1 7 -11 17 -25 22 -14 6 -22 14 -19 20 3 5
8 10 11 10 3 0 2 -6 -2 -12 -5 -9 -2 -9 9 1 9 7 17 19 16 25 0 7 -2 6 -6 -2
-2 -6 -9 -9 -14 -6 -6 4 -6 11 1 19 8 9 5 11 -15 7 -24 -4 -25 -3 -16 21 9 22
8 25 -7 21 -14 -5 -13 -2 3 11 20 17 20 17 -2 11 -12 -4 -24 -2 -29 5 -4 7 -3
9 3 6 6 -4 17 1 24 11 12 15 12 16 -1 5 -10 -8 -21 -9 -30 -3 -12 8 -11 10 5
10 16 0 17 2 5 9 -8 6 -18 7 -24 4 -5 -4 -6 -1 0 8 12 20 14 40 3 33 -5 -3 -7
-10 -4 -15 4 -5 -2 -6 -11 -2 -11 4 -13 8 -6 11 7 2 12 10 12 18 0 9 -5 12
-12 8 -8 -5 -9 -2 -4 11 6 16 4 16 -11 4 -9 -8 -14 -9 -10 -3 3 6 -6 26 -21
44 -15 18 -25 35 -24 38 2 2 -1 8 -8 12 -6 4 -12 16 -13 28 0 11 -5 18 -9 16
-5 -3 -5 -10 -2 -16 4 -6 -3 -4 -16 5 -27 19 -37 52 -14 43 27 -10 -5 33 -36
49 -17 9 -30 18 -30 21 0 3 4 3 9 -1 5 -3 13 -1 16 5 4 6 3 10 -2 9 -4 -1 -19
-1 -32 0 -19 1 -21 4 -11 16 10 12 8 13 -10 10 -19 -4 -20 -2 -8 12 12 15 11
15 -12 3 -23 -12 -24 -12 -11 3 12 15 11 17 -3 17 -9 0 -16 6 -16 13 0 8 -4 7
-11 -3 -8 -12 -9 -10 -4 8 5 17 2 22 -14 22 -11 0 -23 4 -26 10 -3 6 1 7 9 4
9 -3 16 -2 16 3 0 5 -12 10 -26 11 -20 1 -25 -2 -20 -13 3 -8 0 -15 -5 -15 -6
0 -9 9 -6 20 3 11 1 21 -4 21 -5 1 -13 3 -19 4 -5 1 -13 3 -16 4 -4 0 -1 8 6
17 11 12 11 15 -1 12 -8 -2 -13 3 -11 11 3 12 1 12 -14 0 -12 -9 -15 -9 -10
-1 4 7 2 12 -4 12 -6 0 -9 4 -6 9 3 5 -2 15 -12 22 -15 13 -16 12 -4 -3 12
-15 11 -17 -6 -15 -13 1 -18 6 -14 17 5 13 4 13 -12 1 -9 -8 -16 -10 -15 -5 3
19 -1 34 -12 34 -5 0 -8 -4 -5 -8 3 -5 -2 -9 -10 -9 -10 0 -11 4 -4 11 14 14
13 23 -6 30 -8 3 -12 2 -9 -4 3 -6 1 -10 -4 -10 -6 0 -11 7 -11 15 0 8 -3 14
-7 14 -22 -4 -33 2 -27 14 4 6 4 9 -1 5 -4 -4 -15 -2 -23 5 -13 10 -14 9 -8
-3 5 -8 -4 -1 -19 15 -14 17 -24 24 -20 18 4 -9 -2 -12 -18 -11 -17 2 -23 7
-19 17 3 9 1 12 -6 7 -7 -4 -12 -2 -12 3 0 6 -5 11 -11 11 -5 0 -7 -4 -4 -10
4 -6 -1 -7 -11 -3 -13 5 -15 3 -9 -8 7 -11 4 -10 -15 2 -13 9 -26 22 -28 30
-2 8 3 6 12 -5 9 -11 18 -18 20 -15 2 2 -4 15 -15 28 -10 13 -19 19 -19 14 0
-13 -32 -13 -47 0 -8 5 -13 6 -13 0 0 -5 6 -15 13 -23 6 -8 3 -7 -9 3 -11 9
-24 14 -29 10 -4 -5 -5 0 -2 10 6 17 4 18 -33 21 -12 0 -25 7 -29 15 -7 11 -9
11 -13 0 -4 -11 -10 -9 -24 6 -10 12 -16 16 -12 10 4 -6 -4 -11 -18 -11 -13
-1 -24 2 -24 8 0 5 6 6 13 2 7 -4 9 -3 4 2 -5 5 -13 10 -18 10 -5 1 -14 2 -20
3 -5 0 -8 5 -5 10 3 4 -4 17 -17 27 l-22 19 19 -22 c12 -14 14 -23 7 -23 -7 0
-9 -6 -6 -12 4 -7 0 -5 -8 4 -13 16 -15 16 -32 0 -10 -9 -15 -11 -11 -4 4 6 2
12 -4 12 -6 0 -8 5 -4 12 4 6 3 8 -4 4 -5 -3 -13 0 -16 6 -3 7 -3 3 0 -9 3
-14 1 -23 -6 -23 -6 0 -8 5 -5 10 3 6 1 10 -5 10 -6 0 -8 5 -5 10 3 6 1 10 -5
10 -6 0 -8 5 -4 13 5 8 2 8 -9 -2 -9 -7 -17 -10 -17 -6 0 4 -11 0 -25 -9 -13
-9 -28 -16 -32 -16 -4 0 0 5 10 11 9 5 17 15 17 21 0 6 -6 6 -16 -2 -8 -8 -14
-9 -13 -4 4 21 -2 30 -22 31 -21 2 -21 1 -3 -13 17 -13 17 -13 -8 -3 -15 7
-25 17 -21 23 4 6 -3 3 -14 -6 -22 -20 -33 -23 -33 -7 0 5 4 8 8 5 5 -3 9 1 9
9 0 12 -4 12 -19 -2 -18 -16 -18 -16 -12 1 6 17 5 17 -17 6 -21 -12 -23 -11
-11 2 10 13 9 18 -5 29 -17 13 -17 13 -3 -5 13 -17 13 -19 0 -14 -8 3 -27 1
-43 -3 -15 -4 -25 -4 -22 1 3 4 -3 11 -12 14 -10 4 -14 4 -10 0 4 -4 -5 -13
-20 -20 -23 -9 -31 -8 -45 4 -14 12 -18 12 -18 2 0 -7 -2 -11 -5 -8 -10 9 7
38 18 31 6 -3 7 -1 3 6 -6 9 -11 9 -22 0 -11 -9 -14 -9 -14 1 0 7 -9 3 -20
-10 -11 -13 -20 -19 -20 -14 0 6 5 15 12 22 9 9 9 12 1 12 -7 0 -15 -4 -18
-10 -3 -5 -11 -10 -16 -10 -6 0 -7 5 -3 12 5 8 2 9 -10 5 -10 -4 -21 -7 -24
-7 -4 0 0 -5 8 -11 12 -8 10 -9 -9 -4 -17 5 -22 4 -16 -5 6 -9 4 -11 -5 -5
-10 6 -6 14 16 32 33 26 30 31 -5 7z m-303 -50 c-4 -11 -28 -14 -28 -4 0 8 22
20 28 14 2 -1 2 -6 0 -10z m-102 -20 c-9 -9 -20 -14 -23 -10 -4 3 2 13 13 20
25 18 31 12 10 -10z m334 16 c0 -5 -5 -10 -11 -10 -5 0 -7 5 -4 10 3 6 8 10
11 10 2 0 4 -4 4 -10z m360 0 c0 -5 -5 -10 -11 -10 -5 0 -7 5 -4 10 3 6 8 10
11 10 2 0 4 -4 4 -10z m-848 -62 c-7 -7 -12 -8 -12 -2 0 14 12 26 19 19 2 -3
-1 -11 -7 -17z m1233 -48 c-3 -5 -12 -10 -18 -10 -7 0 -6 4 3 10 19 12 23 12
15 0z m9 -28 c3 -5 -1 -9 -9 -9 -8 0 -12 4 -9 9 3 4 7 8 9 8 2 0 6 -4 9 -8z
m122 -19 c-6 -6 -36 9 -36 18 0 5 9 4 20 -3 10 -7 18 -14 16 -15z m-1781 -122
c3 -5 2 -12 -3 -15 -5 -3 -9 1 -9 9 0 17 3 19 12 6z m2126 -18 c13 -16 12 -17
-3 -4 -17 13 -22 21 -14 21 2 0 10 -8 17 -17z m-2160 -40 c13 -16 12 -17 -3
-4 -17 13 -22 21 -14 21 2 0 10 -8 17 -17z m2609 -299 c0 -2 -8 0 -19 5 -10 6
-22 7 -26 3 -5 -4 -5 -1 -1 6 5 9 12 9 27 2 10 -6 19 -13 19 -16z m265 -513
c3 -5 2 -12 -3 -15 -5 -3 -9 1 -9 9 0 17 3 19 12 6z m-3435 -45 c0 -2 -7 -7
-16 -10 -8 -3 -12 -2 -9 4 6 10 25 14 25 6z m-60 -346 c0 -5 -4 -10 -10 -10
-5 0 -10 5 -10 10 0 6 5 10 10 10 6 0 10 -4 10 -10z m-16 -48 c3 -5 -1 -9 -9
-9 -8 0 -12 4 -9 9 3 4 7 8 9 8 2 0 6 -4 9 -8z m3546 -113 c0 -5 -4 -9 -8 -9
-5 0 -9 7 -9 15 0 8 4 12 9 9 4 -3 8 -9 8 -15z m-3550 -159 c0 -5 -4 -10 -10
-10 -5 0 -10 5 -10 10 0 6 5 10 10 10 6 0 10 -4 10 -10z m3558 -45 c-3 -3 -9
2 -12 12 -6 14 -5 15 5 6 7 -7 10 -15 7 -18z m-3540 -17 c-6 -16 -21 -14 -24
4 -1 11 3 15 12 11 8 -3 13 -10 12 -15z m15 -113 c-3 -9 -8 -14 -10 -11 -3 3
-2 9 2 15 9 16 15 13 8 -4z m3527 -65 c0 -5 -5 -10 -11 -10 -5 0 -7 5 -4 10 3
6 8 10 11 10 2 0 4 -4 4 -10z m-3556 -58 c3 -5 -1 -9 -9 -9 -8 0 -12 4 -9 9 3
4 7 8 9 8 2 0 6 -4 9 -8z m3619 -48 c-3 -8 -7 -14 -10 -14 -3 0 -3 7 1 15 3 9
0 15 -10 15 -8 0 -12 5 -9 10 10 16 35 -8 28 -26z m-28 -22 c-3 -3 -11 0 -18
7 -9 10 -8 11 6 5 10 -3 15 -9 12 -12z m-3590 -32 c4 -6 -1 -7 -11 -3 -13 5
-15 3 -9 -7 5 -9 4 -11 -3 -6 -7 4 -12 11 -12 17 0 12 27 12 35 -1z m3749
-166 c3 -8 2 -12 -4 -9 -6 3 -10 10 -10 16 0 14 7 11 14 -7z m-3619 -194 c3
-5 1 -10 -4 -10 -6 0 -11 5 -11 10 0 6 2 10 4 10 3 0 8 -4 11 -10z m3675 -105
c0 -15 -21 -12 -30 5 -11 20 -10 21 9 10 12 -6 21 -13 21 -15z m-55 -35 c3 -5
1 -10 -4 -10 -6 0 -11 5 -11 10 0 6 2 10 4 10 3 0 8 -4 11 -10z m1 -115 c2
-39 -4 -41 -11 -5 -4 19 1 40 8 40 1 0 3 -16 3 -35z m-21 -105 c3 -5 1 -10 -4
-10 -6 0 -11 5 -11 10 0 6 2 10 4 10 3 0 8 -4 11 -10z m-3535 -80 c0 -5 -5
-10 -11 -10 -5 0 -7 5 -4 10 3 6 8 10 11 10 2 0 4 -4 4 -10z m3458 -86 c-3
-14 -5 -12 -10 9 -3 19 -2 25 4 19 6 -6 8 -18 6 -28z m-3468 -99 c0 -2 -7 -2
-15 1 -10 4 -13 0 -10 -16 2 -13 1 -20 -2 -16 -4 4 -8 18 -9 31 -1 20 2 23 18
14 10 -5 18 -12 18 -14z m3070 -215 c8 -15 8 -18 -3 -14 -8 3 -14 11 -14 19 0
20 4 19 17 -5z m-3006 -35 c3 -8 1 -15 -4 -15 -6 0 -10 7 -10 15 0 8 2 15 4
15 2 0 6 -7 10 -15z m2946 -89 c0 -2 -7 -7 -16 -10 -8 -3 -12 -2 -9 4 6 10 25
14 25 6z m-2803 -161 c0 -8 -4 -12 -9 -9 -5 3 -6 10 -3 15 9 13 12 11 12 -6z
m14 -229 c-6 -7 -7 -17 -3 -21 4 -5 2 -5 -5 -2 -9 6 -10 18 -4 45 1 2 6 0 11
-3 8 -5 8 -11 1 -19z m2767 -101 c-3 -3 -9 2 -12 12 -6 14 -5 15 5 6 7 -7 10
-15 7 -18z m-2678 -225 c0 -5 -4 -10 -10 -10 -5 0 -10 5 -10 10 0 6 5 10 10
10 6 0 10 -4 10 -10z m11 -77 c13 -16 12 -17 -3 -4 -10 7 -18 15 -18 17 0 8 8
3 21 -13z m2689 -83 c0 -5 -2 -10 -4 -10 -3 0 -8 5 -11 10 -3 6 -1 10 4 10 6
0 11 -4 11 -10z m-2596 -38 c3 -5 -1 -9 -9 -9 -8 0 -12 4 -9 9 3 4 7 8 9 8 2
0 6 -4 9 -8z m16 -122 c0 -5 -5 -10 -11 -10 -5 0 -7 5 -4 10 3 6 8 10 11 10 2
0 4 -4 4 -10z m2595 -40 c3 -5 1 -10 -4 -10 -6 0 -11 5 -11 10 0 6 2 10 4 10
3 0 8 -4 11 -10z m225 -136 c0 -8 -5 -12 -10 -9 -6 4 -8 11 -5 16 9 14 15 11
15 -7z m-3013 -51 c-4 -3 -2 -12 4 -19 7 -8 6 -14 -2 -20 -7 -4 -9 -3 -5 4 3
6 2 13 -4 17 -10 6 -5 25 7 25 4 0 3 -3 0 -7z m-67 -173 c0 -5 -2 -10 -4 -10
-3 0 -8 5 -11 10 -3 6 -1 10 4 10 6 0 11 -4 11 -10z m41 -153 c-10 -9 -11 -8
-5 6 3 10 9 15 12 12 3 -3 0 -11 -7 -18z m3364 -47 c3 -6 -1 -7 -9 -4 -18 7
-21 14 -7 14 6 0 13 -4 16 -10z m-3370 -48 c-3 -3 -11 0 -18 7 -9 10 -8 11 6
5 10 -3 15 -9 12 -12z m-311 -127 c-4 -8 -11 -15 -16 -15 -6 0 -5 6 2 15 7 8
14 15 16 15 2 0 1 -7 -2 -15z m30 -11 c3 -8 2 -12 -4 -9 -6 3 -10 10 -10 16 0
14 7 11 14 -7z m-279 -83 c3 -5 2 -12 -3 -15 -5 -3 -9 1 -9 9 0 17 3 19 12 6z
m-638 -184 c0 -8 -6 -14 -14 -14 -9 0 -10 4 -2 14 6 7 12 13 14 13 1 0 2 -6 2
-13z m-82 -27 c3 -5 1 -10 -4 -10 -6 0 -11 5 -11 10 0 6 2 10 4 10 3 0 8 -4
11 -10z m-31 -18 c3 -5 -1 -9 -9 -9 -8 0 -12 4 -9 9 3 4 7 8 9 8 2 0 6 -4 9
-8z m-249 -31 c3 -5 1 -12 -5 -16 -5 -3 -10 1 -10 9 0 18 6 21 15 7z m62 -13
c-3 -8 -6 -5 -6 6 -1 11 2 17 5 13 3 -3 4 -12 1 -19z m-104 -3 c4 -8 3 -16 -1
-19 -4 -3 -9 4 -9 15 -2 23 3 25 10 4z m-218 -54 c3 -5 2 -12 -3 -15 -5 -3 -9
1 -9 9 0 17 3 19 12 6z m5885 -51 c0 -5 -5 -10 -11 -10 -5 0 -7 5 -4 10 3 6 8
10 11 10 2 0 4 -4 4 -10z m610 -434 c0 -6 -5 -3 -11 7 -9 15 -13 16 -27 5 -15
-11 -15 -11 -5 3 7 9 9 20 5 25 -4 5 3 0 16 -10 12 -11 22 -24 22 -30z m-7110
-71 c14 -19 14 -19 -2 -6 -10 7 -18 18 -18 24 0 6 1 8 3 6 1 -2 9 -13 17 -24z
m7304 -43 c3 -5 -1 -9 -9 -9 -8 0 -12 4 -9 9 3 4 7 8 9 8 2 0 6 -4 9 -8z
m-7379 -42 c3 -5 1 -10 -4 -10 -6 0 -11 5 -11 10 0 6 2 10 4 10 3 0 8 -4 11
-10z m7565 -56 c0 -2 -9 0 -20 6 -11 6 -20 13 -20 16 0 2 9 0 20 -6 11 -6 20
-13 20 -16z m220 -108 c0 -2 -7 -7 -16 -10 -8 -3 -12 -2 -9 4 6 10 25 14 25 6z
m130 -91 c-7 -9 -15 -13 -19 -10 -3 3 1 10 9 15 21 14 24 12 10 -5z m-7985
-45 c3 -5 1 -10 -4 -10 -6 0 -11 5 -11 10 0 6 2 10 4 10 3 0 8 -4 11 -10z
m8170 -29 c3 -5 2 -12 -3 -15 -5 -3 -9 1 -9 9 0 17 3 19 12 6z m142 -113 c-3
-8 -6 -5 -6 6 -1 11 2 17 5 13 3 -3 4 -12 1 -19z m-8367 -112 c0 -2 -7 -7 -16
-10 -8 -3 -12 -2 -9 4 6 10 25 14 25 6z m-3 -32 c-3 -3 -12 -4 -19 -1 -8 3 -5
6 6 6 11 1 17 -2 13 -5z m-37 -138 c0 -2 -8 -10 -17 -17 -16 -13 -17 -12 -4 4
13 16 21 21 21 13z m8746 -434 c0 -10 -6 -19 -13 -19 -8 0 -9 6 -2 19 5 10 11
18 12 18 2 0 3 -8 3 -18z m-31 -341 c3 -5 2 -12 -3 -15 -5 -3 -9 1 -9 9 0 17
3 19 12 6z m55 -135 c0 -2 -7 -7 -16 -10 -8 -3 -12 -2 -9 4 6 10 25 14 25 6z
m-55 -486 c-3 -5 -11 -10 -16 -10 -6 0 -7 5 -4 10 3 6 11 10 16 10 6 0 7 -4 4
-10z m-9190 -240 c-3 -5 -12 -10 -18 -10 -7 0 -6 4 3 10 19 12 23 12 15 0z
m9092 -272 c2 -18 0 -20 -7 -8 -12 18 -13 30 -2 30 4 0 9 -10 9 -22z m-77
-148 c0 -5 -5 -10 -11 -10 -5 0 -7 5 -4 10 3 6 8 10 11 10 2 0 4 -4 4 -10z
m-171 -404 c14 -17 3 -44 -26 -67 -16 -13 -17 -12 -5 3 8 9 10 23 6 29 -4 7
-3 9 4 5 19 -12 26 17 7 31 -11 7 -14 13 -8 13 6 0 16 -6 22 -14z m-9009 -36
c0 -5 -5 -10 -11 -10 -5 0 -7 5 -4 10 3 6 8 10 11 10 2 0 4 -4 4 -10z m-45
-150 c3 -6 -1 -7 -9 -4 -18 7 -21 14 -7 14 6 0 13 -4 16 -10z m8958 -312 c-4
-7 -8 -17 -8 -22 0 -5 -7 -11 -15 -13 -12 -4 -12 -3 -2 5 8 5 13 12 13 16 -3
19 0 26 10 26 6 0 7 -5 2 -12z m-7 -104 c2 -11 -1 -12 -10 -5 -7 6 -17 7 -22
3 -4 -4 -2 1 5 11 15 19 24 16 27 -9z m-66 -48 c0 -2 -7 -7 -16 -10 -8 -3 -12
-2 -9 4 6 10 25 14 25 6z m-8903 -211 c0 -8 -4 -12 -9 -9 -5 3 -6 10 -3 15 9
13 12 11 12 -6z m8898 -63 c-3 -3 -11 0 -18 7 -9 10 -8 11 6 5 10 -3 15 -9 12
-12z m-28 -116 c0 -8 -6 -12 -15 -9 -11 5 -11 7 0 14 7 5 13 9 14 9 0 0 1 -6
1 -14z m-8922 -16 c3 -6 -1 -7 -9 -4 -18 7 -21 14 -7 14 6 0 13 -4 16 -10z
m-2 -124 c4 -10 1 -13 -8 -9 -8 3 -12 9 -9 14 7 12 11 11 17 -5z m8892 -24
c-3 -3 -11 0 -18 7 -9 10 -8 11 6 5 10 -3 15 -9 12 -12z m-22 -178 c-7 -19
-10 -18 -16 5 -3 13 -1 18 9 14 7 -2 10 -11 7 -19z m-28 -94 c-3 -5 -11 -10
-16 -10 -6 0 -7 5 -4 10 3 6 11 10 16 10 6 0 7 -4 4 -10z m-10 -60 c3 -5 1
-10 -4 -10 -6 0 -11 5 -11 10 0 6 2 10 4 10 3 0 8 -4 11 -10z m-8828 -26 c-3
-3 -12 -4 -19 -1 -8 3 -5 6 6 6 11 1 17 -2 13 -5z m548 -333 c-9 -8 -36 -10
-30 -2 2 4 11 8 20 8 8 0 13 -3 10 -6z m85 5 c0 -2 -7 -7 -16 -10 -8 -3 -12
-2 -9 4 6 10 25 14 25 6z m475 -6 c3 -5 1 -10 -4 -10 -6 0 -11 5 -11 10 0 6 2
10 4 10 3 0 8 -4 11 -10z m325 6 c0 -2 -7 -7 -16 -10 -8 -3 -12 -2 -9 4 6 10
25 14 25 6z m245 -6 c-3 -5 -12 -10 -18 -10 -7 0 -6 4 3 10 19 12 23 12 15 0z
m75 6 c0 -2 -7 -7 -16 -10 -8 -3 -12 -2 -9 4 6 10 25 14 25 6z m245 -6 c-3 -5
-12 -10 -18 -10 -7 0 -6 4 3 10 19 12 23 12 15 0z m75 6 c0 -2 -7 -7 -16 -10
-8 -3 -12 -2 -9 4 6 10 25 14 25 6z m245 -6 c-3 -5 -12 -10 -18 -10 -7 0 -6 4
3 10 19 12 23 12 15 0z m75 6 c0 -2 -7 -7 -16 -10 -8 -3 -12 -2 -9 4 6 10 25
14 25 6z m395 -5 c-9 -8 -36 -10 -30 -2 2 4 11 8 20 8 8 0 13 -3 10 -6z m85 5
c0 -2 -7 -7 -16 -10 -8 -3 -12 -2 -9 4 6 10 25 14 25 6z m475 -6 c3 -5 1 -10
-4 -10 -6 0 -11 5 -11 10 0 6 2 10 4 10 3 0 8 -4 11 -10z m400 1 c-9 -8 -36
-10 -30 -2 2 4 11 8 20 8 8 0 13 -3 10 -6z m85 5 c0 -2 -7 -7 -16 -10 -8 -3
-12 -2 -9 4 6 10 25 14 25 6z m395 -5 c-9 -8 -36 -10 -30 -2 2 4 11 8 20 8 8
0 13 -3 10 -6z m80 -1 c3 -5 1 -10 -4 -10 -6 0 -11 5 -11 10 0 6 2 10 4 10 3
0 8 -4 11 -10z m400 1 c-9 -8 -36 -10 -30 -2 2 4 11 8 20 8 8 0 13 -3 10 -6z
m85 5 c0 -2 -7 -7 -16 -10 -8 -3 -12 -2 -9 4 6 10 25 14 25 6z m480 0 c0 -2
-7 -7 -16 -10 -8 -3 -12 -2 -9 4 6 10 25 14 25 6z m245 -6 c-3 -5 -12 -10 -18
-10 -7 0 -6 4 3 10 19 12 23 12 15 0z m75 6 c0 -2 -7 -7 -16 -10 -8 -3 -12 -2
-9 4 6 10 25 14 25 6z m245 -6 c-3 -5 -12 -10 -18 -10 -7 0 -6 4 3 10 19 12
23 12 15 0z m75 6 c0 -2 -7 -7 -16 -10 -8 -3 -12 -2 -9 4 6 10 25 14 25 6z
m245 -6 c-3 -5 -12 -10 -18 -10 -7 0 -6 4 3 10 19 12 23 12 15 0z m75 6 c0 -2
-7 -7 -16 -10 -8 -3 -12 -2 -9 4 6 10 25 14 25 6z m245 -6 c-3 -5 -12 -10 -18
-10 -7 0 -6 4 3 10 19 12 23 12 15 0z m70 0 c3 -5 1 -10 -4 -10 -6 0 -11 5
-11 10 0 6 2 10 4 10 3 0 8 -4 11 -10z m400 1 c-9 -8 -36 -10 -30 -2 2 4 11 8
20 8 8 0 13 -3 10 -6z m85 5 c0 -2 -7 -7 -16 -10 -8 -3 -12 -2 -9 4 6 10 25
14 25 6z m475 -6 c3 -5 1 -10 -4 -10 -6 0 -11 5 -11 10 0 6 2 10 4 10 3 0 8
-4 11 -10z m320 0 c3 -5 1 -10 -4 -10 -6 0 -11 5 -11 10 0 6 2 10 4 10 3 0 8
-4 11 -10z m400 1 c-9 -8 -36 -10 -30 -2 2 4 11 8 20 8 8 0 13 -3 10 -6z m85
5 c0 -2 -7 -7 -16 -10 -8 -3 -12 -2 -9 4 6 10 25 14 25 6z m399 -43 c-15 -18
-17 -17 -15 9 1 14 -4 22 -12 20 -8 -1 -11 2 -7 8 5 8 13 6 26 -6 14 -13 16
-20 8 -31z m-7803 28 c-4 -5 -1 -11 6 -13 8 -3 6 -6 -4 -10 -11 -5 -15 -2 -13
10 5 23 4 22 11 22 3 0 3 -4 0 -9z m164 5 c0 -2 -8 -10 -17 -17 -16 -13 -17
-12 -4 4 13 16 21 21 21 13z m2076 -5 c-4 -5 -1 -11 6 -13 8 -3 6 -6 -4 -10
-11 -5 -15 -2 -13 10 5 23 4 22 11 22 3 0 3 -4 0 -9z m164 5 c0 -2 -8 -10 -17
-17 -16 -13 -17 -12 -4 4 13 16 21 21 21 13z m1756 -5 c-4 -5 -1 -11 6 -13 8
-3 6 -6 -4 -10 -11 -5 -15 -2 -13 10 5 23 4 22 11 22 3 0 3 -4 0 -9z m2240 0
c-4 -5 -1 -11 6 -13 8 -3 6 -6 -4 -10 -11 -5 -15 -2 -13 10 5 23 4 22 11 22 3
0 3 -4 0 -9z m164 5 c0 -2 -8 -10 -17 -17 -16 -13 -17 -12 -4 4 13 16 21 21
21 13z m-7263 -12 c-8 -8 -48 -13 -43 -6 2 4 14 8 26 9 12 1 20 0 17 -3z m57
-6 c-3 -4 -11 -5 -19 -1 -21 7 -19 12 4 10 11 0 18 -5 15 -9z m166 8 c0 -2 -7
-7 -16 -10 -8 -3 -12 -2 -9 4 6 10 25 14 25 6z m60 0 c0 -2 -7 -7 -16 -10 -8
-3 -12 -2 -9 4 6 10 25 14 25 6z m156 -12 c-5 -13 -1 -15 16 -11 13 4 29 3 35
-1 7 -4 -19 -8 -57 -9 -39 0 -70 3 -70 8 0 4 14 6 30 4 21 -3 33 1 37 10 3 8
7 15 10 15 3 0 2 -7 -1 -16z m134 1 c7 -8 16 -12 21 -9 5 3 9 0 9 -5 0 -16 -9
-14 -37 9 -14 11 -21 20 -16 20 6 0 16 -7 23 -15z m53 -2 c-6 -16 -10 -16 -16
0 -3 8 1 14 8 14 7 0 11 -6 8 -14z m512 7 c3 -5 1 -10 -4 -10 -6 0 -11 5 -11
10 0 6 2 10 4 10 3 0 8 -4 11 -10z m101 -6 c-5 -13 -1 -15 16 -11 13 4 29 3
36 -2 7 -4 -19 -7 -57 -7 -38 1 -72 4 -75 7 -4 4 10 5 29 3 24 -1 38 2 42 12
3 8 7 14 10 14 3 0 2 -7 -1 -16z m144 12 c0 -2 -7 -7 -16 -10 -8 -3 -12 -2 -9
4 6 10 25 14 25 6z m176 -12 c-5 -13 -1 -15 16 -11 13 4 29 3 36 -1 6 -5 -17
-8 -53 -8 -35 -1 -62 3 -59 8 3 5 14 6 25 3 12 -4 21 -1 25 9 3 9 8 16 11 16
3 0 2 -7 -1 -16z m144 12 c0 -2 -7 -7 -16 -10 -8 -3 -12 -2 -9 4 6 10 25 14
25 6z m176 -12 c-5 -13 -1 -15 16 -11 13 4 29 3 36 -1 6 -5 -17 -8 -53 -8 -35
-1 -62 3 -59 8 3 5 14 6 25 3 12 -4 21 -1 25 9 3 9 8 16 11 16 3 0 2 -7 -1
-16z m144 12 c0 -2 -7 -7 -16 -10 -8 -3 -12 -2 -9 4 6 10 25 14 25 6z m176
-12 c-5 -13 -1 -15 16 -11 13 4 29 3 36 -1 6 -5 -17 -8 -53 -8 -35 -1 -62 3
-59 8 3 5 14 6 25 3 12 -4 21 -1 25 9 3 9 8 16 11 16 3 0 2 -7 -1 -16z m195
-11 c-12 -20 -14 -14 -5 12 4 9 9 14 11 11 3 -2 0 -13 -6 -23z m129 23 c0 -2
-7 -7 -16 -10 -8 -3 -12 -2 -9 4 6 10 25 14 25 6z m156 -12 c-5 -13 -1 -15 16
-11 13 4 29 3 35 -1 7 -4 -19 -8 -57 -9 -39 0 -70 3 -70 8 0 4 14 6 30 4 21
-3 33 1 37 10 3 8 7 15 10 15 3 0 2 -7 -1 -16z m134 1 c7 -8 16 -12 21 -9 5 3
9 0 9 -5 0 -16 -9 -14 -37 9 -14 11 -21 20 -16 20 6 0 16 -7 23 -15z m53 -2
c-6 -16 -10 -16 -16 0 -3 8 1 14 8 14 7 0 11 -6 8 -14z m512 7 c3 -5 1 -10 -4
-10 -6 0 -11 5 -11 10 0 6 2 10 4 10 3 0 8 -4 11 -10z m105 6 c0 -2 -7 -7 -16
-10 -8 -3 -12 -2 -9 4 6 10 25 14 25 6z m156 -12 c-5 -13 -1 -15 16 -11 13 4
29 3 35 -1 7 -4 -19 -8 -57 -9 -39 0 -70 3 -70 8 0 4 14 6 30 4 21 -3 33 1 37
10 3 8 7 15 10 15 3 0 2 -7 -1 -16z m324 12 c0 -2 -7 -7 -16 -10 -8 -3 -12 -2
-9 4 6 10 25 14 25 6z m375 -6 c3 -5 1 -10 -4 -10 -6 0 -11 5 -11 10 0 6 2 10
4 10 3 0 8 -4 11 -10z m105 6 c0 -2 -7 -7 -16 -10 -8 -3 -12 -2 -9 4 6 10 25
14 25 6z m156 -12 c-5 -13 -1 -15 16 -11 13 4 29 3 35 -1 7 -4 -19 -8 -57 -9
-39 0 -70 3 -70 8 0 4 14 6 30 4 21 -3 33 1 37 10 3 8 7 15 10 15 3 0 2 -7 -1
-16z m134 1 c7 -8 16 -12 21 -9 5 3 9 0 9 -5 0 -16 -9 -14 -37 9 -14 11 -21
20 -16 20 6 0 16 -7 23 -15z m53 -2 c-6 -16 -10 -16 -16 0 -3 8 1 14 8 14 7 0
11 -6 8 -14z m237 13 c0 -2 -7 -7 -16 -10 -8 -3 -12 -2 -9 4 6 10 25 14 25 6z
m56 -12 c-5 -13 -1 -15 16 -11 13 4 29 3 36 -1 6 -5 -17 -8 -53 -8 -35 -1 -62
3 -59 8 3 5 14 6 25 3 12 -4 21 -1 25 9 3 9 8 16 11 16 3 0 2 -7 -1 -16z m144
12 c0 -2 -7 -7 -16 -10 -8 -3 -12 -2 -9 4 6 10 25 14 25 6z m176 -12 c-5 -13
-1 -15 16 -11 13 4 29 3 36 -1 6 -5 -17 -8 -53 -8 -35 -1 -62 3 -59 8 3 5 14
6 25 3 12 -4 21 -1 25 9 3 9 8 16 11 16 3 0 2 -7 -1 -16z m144 12 c0 -2 -7 -7
-16 -10 -8 -3 -12 -2 -9 4 6 10 25 14 25 6z m176 -12 c-5 -13 -1 -15 16 -11
13 4 29 3 36 -1 6 -5 -17 -8 -53 -8 -35 -1 -62 3 -59 8 3 5 14 6 25 3 12 -4
21 -1 25 9 3 9 8 16 11 16 3 0 2 -7 -1 -16z m144 12 c0 -2 -7 -7 -16 -10 -8
-3 -12 -2 -9 4 6 10 25 14 25 6z m176 -12 c-5 -13 -1 -15 16 -11 13 4 29 3 36
-1 6 -5 -17 -8 -53 -8 -35 -1 -62 3 -59 8 3 5 14 6 25 3 12 -4 21 -1 25 9 3 9
8 16 11 16 3 0 2 -7 -1 -16z m144 12 c0 -2 -7 -7 -16 -10 -8 -3 -12 -2 -9 4 6
10 25 14 25 6z m395 -6 c3 -5 1 -10 -4 -10 -6 0 -11 5 -11 10 0 6 2 10 4 10 3
0 8 -4 11 -10z m105 6 c0 -2 -7 -7 -16 -10 -8 -3 -12 -2 -9 4 6 10 25 14 25 6z
m156 -12 c-5 -13 -1 -15 16 -11 13 4 29 3 35 -1 7 -4 -19 -8 -57 -9 -39 0 -70
3 -70 8 0 4 14 6 30 4 21 -3 33 1 37 10 3 8 7 15 10 15 3 0 2 -7 -1 -16z m134
1 c7 -8 16 -12 21 -9 5 3 9 0 9 -5 0 -16 -9 -14 -37 9 -14 11 -21 20 -16 20 6
0 16 -7 23 -15z m53 -2 c-6 -16 -10 -16 -16 0 -3 8 1 14 8 14 7 0 11 -6 8 -14z
m512 7 c3 -5 1 -10 -4 -10 -6 0 -11 5 -11 10 0 6 2 10 4 10 3 0 8 -4 11 -10z
m320 0 c3 -5 1 -10 -4 -10 -6 0 -11 5 -11 10 0 6 2 10 4 10 3 0 8 -4 11 -10z
m105 6 c0 -2 -7 -7 -16 -10 -8 -3 -12 -2 -9 4 6 10 25 14 25 6z m156 -12 c-5
-13 -1 -15 16 -11 13 4 29 3 35 -1 7 -4 -19 -8 -57 -9 -39 0 -70 3 -70 8 0 4
14 6 30 4 21 -3 33 1 37 10 3 8 7 15 10 15 3 0 2 -7 -1 -16z m240 0 c-4 -12
-2 -15 9 -10 8 3 15 1 15 -4 0 -5 -13 -8 -29 -8 -26 1 -27 2 -12 19 20 22 25
23 17 3z m-8483 -7 c3 -8 -1 -14 -8 -14 -7 0 -11 6 -8 14 3 7 6 13 8 13 2 0 5
-6 8 -13z m40 5 c4 9 6 9 6 1 2 -20 -16 -24 -30 -5 -13 15 -12 16 3 4 13 -10
17 -10 21 0z m247 -7 c0 -15 -32 -16 -46 -2 -4 3 3 5 15 2 11 -2 21 0 21 6 0
5 2 9 5 9 3 0 5 -7 5 -15z m133 0 c-3 -9 -8 -14 -10 -11 -3 3 -2 9 2 15 9 16
15 13 8 -4z m348 -8 c-10 -9 -11 -8 -5 6 3 10 9 15 12 12 3 -3 0 -11 -7 -18z
m122 10 c3 -9 -4 -13 -23 -12 -16 0 -26 4 -23 8 3 5 11 6 19 3 8 -3 14 -1 14
4 0 14 7 12 13 -3z m24 -9 c-3 -8 -6 -5 -6 6 -1 11 2 17 5 13 3 -3 4 -12 1
-19z m171 10 c-5 -14 -36 -20 -43 -8 -3 5 4 7 15 5 11 -2 20 0 20 6 0 5 3 9 6
9 3 0 4 -5 2 -12z m134 -2 c10 1 20 -1 22 -5 2 -3 -9 -7 -25 -7 -21 -1 -29 3
-29 15 0 10 3 12 8 5 4 -6 15 -10 24 -8z m1441 -1 c-3 -9 -8 -14 -10 -11 -3 3
-2 9 2 15 9 16 15 13 8 -4z m348 -8 c-10 -9 -11 -8 -5 6 3 10 9 15 12 12 3 -3
0 -11 -7 -18z m122 10 c3 -9 -4 -13 -23 -12 -16 0 -26 4 -23 8 3 5 11 6 19 3
8 -3 14 -1 14 4 0 14 7 12 13 -3z m24 -9 c-3 -8 -6 -5 -6 6 -1 11 2 17 5 13 3
-3 4 -12 1 -19z m171 10 c-5 -14 -36 -20 -43 -8 -3 5 4 7 15 5 11 -2 20 0 20
6 0 5 3 9 6 9 3 0 4 -5 2 -12z m134 -2 c10 1 20 -1 22 -5 2 -3 -9 -7 -25 -7
-21 -1 -29 3 -29 15 0 10 3 12 8 5 4 -6 15 -10 24 -8z m161 -1 c-3 -9 -8 -14
-10 -11 -3 3 -2 9 2 15 9 16 15 13 8 -4z m340 0 c-3 -9 -8 -14 -10 -11 -3 3
-2 9 2 15 9 16 15 13 8 -4z m140 0 c-3 -9 -8 -14 -10 -11 -3 3 -2 9 2 15 9 16
15 13 8 -4z m185 3 c-5 -14 -36 -20 -43 -8 -3 5 4 7 15 5 11 -2 20 0 20 6 0 5
3 9 6 9 3 0 4 -5 2 -12z m134 -2 c10 1 20 -1 22 -5 2 -3 -9 -7 -25 -7 -21 -1
-29 3 -29 15 0 10 3 12 8 5 4 -6 15 -10 24 -8z m161 -1 c-3 -9 -8 -14 -10 -11
-3 3 -2 9 2 15 9 16 15 13 8 -4z m348 -8 c-10 -9 -11 -8 -5 6 3 10 9 15 12 12
3 -3 0 -11 -7 -18z m122 10 c3 -9 -4 -13 -23 -12 -16 0 -26 4 -23 8 3 5 11 6
19 3 8 -3 14 -1 14 4 0 14 7 12 13 -3z m24 -9 c-3 -8 -6 -5 -6 6 -1 11 2 17 5
13 3 -3 4 -12 1 -19z m1451 10 c-5 -14 -36 -20 -43 -8 -3 5 4 7 15 5 11 -2 20
0 20 6 0 5 3 9 6 9 3 0 4 -5 2 -12z m134 -2 c10 1 20 -1 22 -5 2 -3 -9 -7 -25
-7 -21 -1 -29 3 -29 15 0 10 3 12 8 5 4 -6 15 -10 24 -8z m161 -1 c-3 -9 -8
-14 -10 -11 -3 3 -2 9 2 15 9 16 15 13 8 -4z m348 -8 c-10 -9 -11 -8 -5 6 3
10 9 15 12 12 3 -3 0 -11 -7 -18z m122 10 c3 -9 -4 -13 -23 -12 -16 0 -26 4
-23 8 3 5 11 6 19 3 8 -3 14 -1 14 4 0 14 7 12 13 -3z m24 -9 c-3 -8 -6 -5 -6
6 -1 11 2 17 5 13 3 -3 4 -12 1 -19z m171 10 c-5 -14 -36 -20 -43 -8 -3 5 4 7
15 5 11 -2 20 0 20 6 0 5 3 9 6 9 3 0 4 -5 2 -12z m134 -2 c10 1 20 -1 22 -5
2 -3 -9 -7 -25 -7 -21 -1 -29 3 -29 15 0 10 3 12 8 5 4 -6 15 -10 24 -8z m186
2 c-5 -14 -36 -20 -43 -8 -3 5 4 7 15 5 11 -2 20 0 20 6 0 5 3 9 6 9 3 0 4 -5
2 -12z m134 -2 c10 1 20 -1 22 -5 2 -3 -9 -7 -25 -7 -21 -1 -29 3 -29 15 0 10
3 12 8 5 4 -6 15 -10 24 -8z m161 -1 c-3 -9 -8 -14 -10 -11 -3 3 -2 9 2 15 9
16 15 13 8 -4z m340 0 c-3 -9 -8 -14 -10 -11 -3 3 -2 9 2 15 9 16 15 13 8 -4z
m130 2 c5 -14 -36 -18 -49 -4 -4 3 3 5 15 2 11 -2 21 0 21 6 0 13 7 11 13 -4z
m24 -9 c-3 -8 -6 -5 -6 6 -1 11 2 17 5 13 3 -3 4 -12 1 -19z m-8432 2 c3 -5 1
-10 -4 -10 -6 0 -11 5 -11 10 0 6 2 10 4 10 3 0 8 -4 11 -10z m39 2 c3 -5 -1
-9 -9 -9 -8 0 -12 4 -9 9 7 10 11 10 18 0z m756 -2 c8 -5 11 -10 5 -10 -5 0
-17 5 -25 10 -8 5 -10 10 -5 10 6 0 17 -5 25 -10z m45 0 c3 -5 2 -10 -4 -10
-5 0 -13 5 -16 10 -3 6 -2 10 4 10 5 0 13 -4 16 -10z m535 0 c12 -7 10 -9 -8
-7 -12 0 -22 5 -22 9 0 11 12 10 30 -2z m70 0 c0 -5 -2 -10 -4 -10 -3 0 -8 5
-11 10 -3 6 -1 10 4 10 6 0 11 -4 11 -10z m250 0 c12 -7 10 -9 -8 -7 -12 0
-22 5 -22 9 0 11 12 10 30 -2z m70 0 c0 -5 -2 -10 -4 -10 -3 0 -8 5 -11 10 -3
6 -1 10 4 10 6 0 11 -4 11 -10z m250 0 c12 -7 10 -9 -8 -7 -12 0 -22 5 -22 9
0 11 12 10 30 -2z m70 0 c0 -5 -2 -10 -4 -10 -3 0 -8 5 -11 10 -3 6 -1 10 4
10 6 0 11 -4 11 -10z m220 -5 c0 -2 -9 -3 -19 -2 -11 0 -18 5 -15 9 4 6 34 0
34 -7z m80 5 c0 -5 -5 -10 -11 -10 -5 0 -7 5 -4 10 3 6 8 10 11 10 2 0 4 -4 4
-10z m68 2 c8 -6 2 -9 -18 -9 -20 0 -26 3 -18 9 7 4 15 8 18 8 3 0 11 -4 18
-8z m582 -2 c8 -5 11 -10 5 -10 -5 0 -17 5 -25 10 -8 5 -10 10 -5 10 6 0 17
-5 25 -10z m45 0 c3 -5 2 -10 -4 -10 -5 0 -13 5 -16 10 -3 6 -2 10 4 10 5 0
13 -4 16 -10z m341 -2 c3 -3 -8 -5 -25 -4 -16 1 -32 4 -35 7 -4 3 7 5 24 4 17
-1 33 -4 36 -7z m404 2 c0 -5 -5 -10 -11 -10 -5 0 -7 5 -4 10 3 6 8 10 11 10
2 0 4 -4 4 -10z m68 2 c8 -6 2 -9 -18 -9 -20 0 -26 3 -18 9 7 4 15 8 18 8 3 0
11 -4 18 -8z m147 -1 c3 -6 -4 -9 -15 -8 -11 1 -20 5 -20 9 0 11 28 10 35 -1z
m341 -3 c3 -3 -8 -5 -25 -4 -16 1 -32 4 -35 7 -4 3 7 5 24 4 17 -1 33 -4 36
-7z m574 2 c8 -5 11 -10 5 -10 -5 0 -17 5 -25 10 -8 5 -10 10 -5 10 6 0 17 -5
25 -10z m260 0 c12 -7 10 -9 -8 -7 -12 0 -22 5 -22 9 0 11 12 10 30 -2z m70 0
c0 -5 -2 -10 -4 -10 -3 0 -8 5 -11 10 -3 6 -1 10 4 10 6 0 11 -4 11 -10z m250
0 c12 -7 10 -9 -8 -7 -12 0 -22 5 -22 9 0 11 12 10 30 -2z m70 0 c0 -5 -2 -10
-4 -10 -3 0 -8 5 -11 10 -3 6 -1 10 4 10 6 0 11 -4 11 -10z m250 0 c12 -7 10
-9 -8 -7 -12 0 -22 5 -22 9 0 11 12 10 30 -2z m70 0 c0 -5 -2 -10 -4 -10 -3 0
-8 5 -11 10 -3 6 -1 10 4 10 6 0 11 -4 11 -10z m250 0 c12 -7 10 -9 -8 -7 -12
0 -22 5 -22 9 0 11 12 10 30 -2z m70 0 c0 -5 -2 -10 -4 -10 -3 0 -8 5 -11 10
-3 6 -1 10 4 10 6 0 11 -4 11 -10z m35 0 c3 -5 2 -10 -4 -10 -5 0 -13 5 -16
10 -3 6 -2 10 4 10 5 0 13 -4 16 -10z m341 -2 c3 -3 -8 -5 -25 -4 -16 1 -32 4
-35 7 -4 3 7 5 24 4 17 -1 33 -4 36 -7z m574 2 c8 -5 11 -10 5 -10 -5 0 -17 5
-25 10 -8 5 -10 10 -5 10 6 0 17 -5 25 -10z m45 0 c3 -5 2 -10 -4 -10 -5 0
-13 5 -16 10 -3 6 -2 10 4 10 5 0 13 -4 16 -10z m320 -1 c4 -5 -3 -8 -14 -6
-28 4 -34 12 -11 14 11 1 22 -2 25 -8z m341 -1 c3 -3 -8 -5 -25 -4 -16 1 -32
4 -35 7 -4 3 7 5 24 4 17 -1 33 -4 36 -7z"/>
<path d="M6014 11619 c-8 -14 13 -18 30 -6 16 12 16 13 -4 13 -12 0 -23 -4
-26 -7z"/>
<path d="M4805 11290 c-4 -6 -11 -7 -17 -4 -7 4 -8 2 -4 -5 6 -9 11 -9 22 0
14 11 18 19 10 19 -3 0 -8 -5 -11 -10z"/>
<path d="M4713 11255 c0 -8 4 -12 9 -9 5 3 6 10 3 15 -9 13 -12 11 -12 -6z"/>
<path d="M4575 11020 c-3 -5 -1 -10 4 -10 6 0 11 5 11 10 0 6 -2 10 -4 10 -3
0 -8 -4 -11 -10z"/>
<path d="M7440 11026 c0 -2 8 -10 18 -17 15 -13 16 -12 3 4 -13 16 -21 21 -21
13z"/>
<path d="M7460 10926 c0 -2 7 -6 15 -10 8 -3 15 -1 15 4 0 6 -7 10 -15 10 -8
0 -15 -2 -15 -4z"/>
<path d="M7537 10863 c-3 -5 4 -15 16 -23 21 -12 21 -12 7 6 -8 10 -15 20 -16
22 -1 2 -4 -1 -7 -5z"/>
<path d="M7595 10821 c-3 -5 -2 -12 3 -15 5 -3 9 1 9 9 0 17 -3 19 -12 6z"/>
<path d="M4206 10398 c3 -5 10 -6 15 -3 13 9 11 12 -6 12 -8 0 -12 -4 -9 -9z"/>
<path d="M7753 10245 c0 -8 4 -12 9 -9 5 3 6 10 3 15 -9 13 -12 11 -12 -6z"/>
<path d="M7742 10211 c-11 -7 -11 -9 0 -14 9 -3 15 1 15 9 0 8 -1 14 -1 14 -1
0 -7 -4 -14 -9z"/>
<path d="M7776 10102 c-3 -5 1 -9 9 -9 8 0 12 4 9 9 -3 4 -7 8 -9 8 -2 0 -6
-4 -9 -8z"/>
<path d="M4150 10076 c0 -2 8 -10 18 -17 15 -13 16 -12 3 4 -13 16 -21 21 -21
13z"/>
<path d="M7786 9918 c3 -5 10 -6 15 -3 13 9 11 12 -6 12 -8 0 -12 -4 -9 -9z"/>
<path d="M4175 9900 c-3 -5 -1 -10 4 -10 6 0 11 5 11 10 0 6 -2 10 -4 10 -3 0
-8 -4 -11 -10z"/>
<path d="M4175 9869 c-10 -15 3 -25 16 -12 7 7 7 13 1 17 -6 3 -14 1 -17 -5z"/>
<path d="M7764 9845 c0 -12 6 -22 13 -22 9 0 10 4 2 14 -8 9 -8 13 0 13 6 0
11 4 11 8 0 5 -6 9 -13 9 -7 0 -13 -10 -13 -22z"/>
<path d="M4174 9829 c-3 -6 -2 -15 3 -20 5 -5 9 -1 9 11 0 23 -2 24 -12 9z"/>
<path d="M7799 9813 c-13 -16 -12 -17 4 -4 9 7 17 15 17 17 0 8 -8 3 -21 -13z"/>
<path d="M4175 9781 c-3 -5 -2 -12 3 -15 5 -3 9 1 9 9 0 17 -3 19 -12 6z"/>
<path d="M4176 9647 c3 -10 9 -15 12 -12 3 3 0 11 -7 18 -10 9 -11 8 -5 -6z"/>
<path d="M7793 9583 c4 -3 1 -13 -6 -22 -11 -14 -10 -14 6 -2 20 15 22 31 5
31 -6 0 -8 -3 -5 -7z"/>
<path d="M4196 9528 c3 -5 10 -6 15 -3 13 9 11 12 -6 12 -8 0 -12 -4 -9 -9z"/>
<path d="M7813 9501 c0 -11 5 -18 9 -15 4 3 5 11 1 19 -7 21 -12 19 -10 -4z"/>
<path d="M4170 9261 c0 -6 4 -13 10 -16 6 -3 7 1 4 9 -7 18 -14 21 -14 7z"/>
<path d="M7985 9241 c-3 -6 3 -9 14 -8 11 0 17 5 15 9 -7 11 -22 10 -29 -1z"/>
<path d="M8005 9000 c-3 -5 -2 -10 4 -10 5 0 13 5 16 10 3 6 2 10 -4 10 -5 0
-13 -4 -16 -10z"/>
<path d="M4306 8904 c-6 -15 -4 -15 11 -3 15 13 16 12 9 -6 -5 -15 -4 -17 5
-8 11 11 5 33 -11 33 -4 0 -11 -7 -14 -16z"/>
<path d="M4325 8861 c-3 -5 -2 -12 3 -15 5 -3 9 1 9 9 0 17 -3 19 -12 6z"/>
<path d="M4345 8720 c-3 -6 1 -7 9 -4 18 7 21 14 7 14 -6 0 -13 -4 -16 -10z"/>
<path d="M4340 8662 c0 -6 9 -12 20 -15 11 -3 20 -3 20 -1 0 2 -9 8 -20 14
-11 6 -20 7 -20 2z"/>
<path d="M4335 8600 c-3 -5 -1 -10 4 -10 6 0 11 5 11 10 0 6 -2 10 -4 10 -3 0
-8 -4 -11 -10z"/>
<path d="M4335 8570 c-3 -5 -2 -10 4 -10 5 0 13 5 16 10 3 6 2 10 -4 10 -5 0
-13 -4 -16 -10z"/>
<path d="M4356 8431 c-4 -5 -2 -12 3 -15 5 -4 12 -2 15 3 4 5 2 12 -3 15 -5 4
-12 2 -15 -3z"/>
<path d="M7501 8151 c-9 -6 -10 -11 -2 -15 6 -4 11 -2 11 4 0 6 5 8 10 5 6 -3
10 -1 10 4 0 13 -10 14 -29 2z"/>
<path d="M7543 8153 c4 -3 1 -13 -6 -22 -10 -14 -10 -14 4 -4 9 7 20 9 25 5 4
-4 2 1 -5 11 -7 9 -16 17 -19 17 -3 0 -2 -3 1 -7z"/>
<path d="M7589 8142 c-13 -15 -12 -16 3 -4 13 10 17 10 21 0 4 -9 6 -9 6 -1 2
20 -16 24 -30 5z"/>
<path d="M7425 8121 c-6 -11 13 -26 22 -17 4 3 1 6 -6 6 -7 0 -9 5 -6 10 3 6
4 10 1 10 -3 0 -7 -4 -11 -9z"/>
<path d="M4555 7780 c-3 -6 1 -7 9 -4 18 7 21 14 7 14 -6 0 -13 -4 -16 -10z"/>
<path d="M7426 7578 c3 -5 10 -6 15 -3 13 9 11 12 -6 12 -8 0 -12 -4 -9 -9z"/>
<path d="M4623 7565 c0 -8 4 -12 9 -9 5 3 6 10 3 15 -9 13 -12 11 -12 -6z"/>
<path d="M4630 7482 c0 -5 6 -15 14 -21 12 -10 14 -9 12 5 -3 19 -26 33 -26
16z"/>
<path d="M7426 7422 c-2 -4 4 -8 14 -8 10 0 16 4 14 8 -3 4 -9 8 -14 8 -5 0
-11 -4 -14 -8z"/>
<path d="M4650 7399 c0 -5 5 -7 10 -4 6 3 10 8 10 11 0 2 -4 4 -10 4 -5 0 -10
-5 -10 -11z"/>
<path d="M7419 7333 c-13 -17 -13 -17 6 -3 11 8 22 16 24 17 2 2 0 3 -6 3 -6
0 -17 -8 -24 -17z"/>
<path d="M7428 7273 c7 -3 16 -2 19 1 4 3 -2 6 -13 5 -11 0 -14 -3 -6 -6z"/>
<path d="M4717 7129 c7 -7 15 -10 18 -7 3 3 -2 9 -12 12 -14 6 -15 5 -6 -5z"/>
<path d="M4735 7100 c3 -5 8 -10 11 -10 2 0 4 5 4 10 0 6 -5 10 -11 10 -5 0
-7 -4 -4 -10z"/>
<path d="M7470 6940 c0 -5 5 -10 10 -10 6 0 10 5 10 10 0 6 -4 10 -10 10 -5 0
-10 -4 -10 -10z"/>
<path d="M4799 6868 c0 -2 -2 -11 -4 -21 -3 -15 -1 -16 11 -6 16 13 19 29 4
29 -5 0 -10 -1 -11 -2z"/>
<path d="M4580 6786 c0 -2 8 -10 18 -17 15 -13 16 -12 3 4 -13 16 -21 21 -21
13z"/>
<path d="M4570 6659 c0 -5 -4 -7 -10 -4 -17 10 -11 -2 8 -16 9 -7 14 -9 10 -5
-4 5 -3 15 3 23 9 9 8 13 0 13 -6 0 -11 -5 -11 -11z"/>
<path d="M4519 6533 c-13 -16 -12 -17 4 -4 9 7 17 15 17 17 0 8 -8 3 -21 -13z"/>
<path d="M4355 6300 c-3 -5 -1 -10 4 -10 6 0 11 5 11 10 0 6 -2 10 -4 10 -3 0
-8 -4 -11 -10z"/>
<path d="M4446 6298 c3 -5 10 -6 15 -3 13 9 11 12 -6 12 -8 0 -12 -4 -9 -9z"/>
<path d="M4418 6268 c3 -14 1 -19 -6 -14 -6 3 -13 2 -16 -3 -4 -5 2 -8 11 -7
20 3 30 31 14 40 -5 4 -7 -3 -3 -16z"/>
<path d="M8150 6220 c0 -5 5 -10 11 -10 5 0 7 5 4 10 -3 6 -8 10 -11 10 -2 0
-4 -4 -4 -10z"/>
<path d="M3840 6100 c8 -5 20 -10 25 -10 6 0 3 5 -5 10 -8 5 -19 10 -25 10 -5
0 -3 -5 5 -10z"/>
<path d="M2716 5807 c3 -10 9 -15 12 -12 3 3 0 11 -7 18 -10 9 -11 8 -5 -6z"/>
<path d="M8600 5806 c0 -2 7 -9 15 -16 9 -7 15 -8 15 -2 0 5 -7 12 -15 16 -8
3 -15 4 -15 2z"/>
<path d="M8700 5744 c0 -6 7 -19 15 -30 8 -10 14 -14 14 -9 0 6 -6 19 -14 29
-8 11 -15 15 -15 10z"/>
<path d="M2187 5479 c7 -7 15 -10 18 -7 3 3 -2 9 -12 12 -14 6 -15 5 -6 -5z"/>
<path d="M9061 5443 c-1 -17 16 -25 25 -12 4 7 3 9 -4 5 -5 -3 -13 0 -15 6 -4
9 -6 10 -6 1z"/>
<path d="M9326 5302 c-3 -5 1 -9 9 -9 8 0 12 4 9 9 -3 4 -7 8 -9 8 -2 0 -6 -4
-9 -8z"/>
<path d="M9363 5255 c0 -8 4 -12 9 -9 5 3 6 10 3 15 -9 13 -12 11 -12 -6z"/>
<path d="M2110 5240 c0 -5 5 -10 11 -10 5 0 7 5 4 10 -3 6 -8 10 -11 10 -2 0
-4 -4 -4 -10z"/>
<path d="M2018 4983 c7 -3 16 -2 19 1 4 3 -2 6 -13 5 -11 0 -14 -3 -6 -6z"/>
<path d="M10267 4765 c3 -8 9 -12 14 -9 12 7 11 11 -5 17 -10 4 -13 1 -9 -8z"/>
<path d="M1940 4646 c0 -2 8 -10 18 -17 15 -13 16 -12 3 4 -13 16 -21 21 -21
13z"/>
<path d="M10572 4513 c-6 -2 -10 -9 -6 -14 8 -14 21 -11 21 6 0 8 -1 15 -1 14
-1 0 -7 -3 -14 -6z"/>
<path d="M1834 4263 c2 -10 6 -17 10 -16 15 3 16 11 2 22 -12 10 -14 9 -12 -6z"/>
<path d="M10645 4200 c-3 -5 -1 -10 4 -10 6 0 11 5 11 10 0 6 -2 10 -4 10 -3
0 -8 -4 -11 -10z"/>
<path d="M10664 4143 c2 -9 8 -18 15 -19 6 -1 7 0 1 3 -5 2 -8 9 -5 13 3 5 1
11 -4 14 -5 4 -8 -2 -7 -11z"/>
<path d="M10683 4098 c-11 -19 -13 -39 -1 -32 5 3 7 9 4 12 -3 3 -1 11 5 19 6
7 9 13 6 13 -3 0 -9 -6 -14 -12z"/>
<path d="M10674 3934 c-18 -14 -18 -15 4 -4 12 6 22 13 22 15 0 8 -5 6 -26
-11z"/>
<path d="M10695 3860 c-4 -6 1 -7 12 -3 16 6 17 5 3 -13 -14 -18 -14 -18 2 -5
10 7 15 17 12 22 -7 12 -21 11 -29 -1z"/>
<path d="M1670 3800 c0 -5 5 -10 11 -10 5 0 7 5 4 10 -3 6 -8 10 -11 10 -2 0
-4 -4 -4 -10z"/>
<path d="M10685 3620 c-3 -5 -1 -10 4 -10 6 0 11 5 11 10 0 6 -2 10 -4 10 -3
0 -8 -4 -11 -10z"/>
<path d="M1593 3505 c0 -8 4 -12 9 -9 5 3 6 10 3 15 -9 13 -12 11 -12 -6z"/>
<path d="M1564 3392 c3 -5 0 -13 -6 -15 -9 -4 -10 -6 -1 -6 17 -1 25 16 12 25
-7 4 -9 3 -5 -4z"/>
<path d="M1540 3315 c5 -7 7 -15 3 -18 -3 -4 -1 -7 5 -7 6 0 10 8 9 18 0 10
-7 19 -14 19 -9 0 -10 -4 -3 -12z"/>
<path d="M10645 3200 c-3 -5 -1 -10 4 -10 6 0 11 5 11 10 0 6 -2 10 -4 10 -3
0 -8 -4 -11 -10z"/>
<path d="M10610 2726 c0 -2 7 -7 16 -10 8 -3 12 -2 9 4 -6 10 -25 14 -25 6z"/>
<path d="M1384 2684 c-18 -14 -18 -15 4 -4 12 6 22 13 22 15 0 8 -5 6 -26 -11z"/>
<path d="M1330 2445 c-7 -8 -9 -15 -5 -15 4 0 1 -8 -6 -17 -13 -16 -12 -17 4
-4 9 8 15 16 12 19 -3 3 0 11 6 19 6 7 9 13 6 13 -2 0 -10 -7 -17 -15z"/>
<path d="M1255 2100 c3 -5 8 -10 11 -10 2 0 4 5 4 10 0 6 -5 10 -11 10 -5 0
-7 -4 -4 -10z"/>
<path d="M1190 1866 c0 -2 7 -7 16 -10 8 -3 12 -2 9 4 -6 10 -25 14 -25 6z"/>
<path d="M10256 1642 c-3 -5 1 -9 9 -9 8 0 12 4 9 9 -3 4 -7 8 -9 8 -2 0 -6
-4 -9 -8z"/>
<path d="M10226 1598 c3 -5 10 -6 15 -3 13 9 11 12 -6 12 -8 0 -12 -4 -9 -9z"/>
<path d="M10223 1565 c0 -8 4 -12 9 -9 5 3 6 10 3 15 -9 13 -12 11 -12 -6z"/>
<path d="M1175 1560 c3 -5 8 -10 11 -10 2 0 4 5 4 10 0 6 -5 10 -11 10 -5 0
-7 -4 -4 -10z"/>
<path d="M1174 1514 c0 -20 11 -25 11 -6 0 4 3 12 7 18 4 6 1 11 -5 11 -7 0
-13 -11 -13 -23z"/>
<path d="M1174 1419 c0 -13 3 -15 13 -7 7 6 13 12 13 13 0 2 -6 5 -13 8 -7 3
-13 -3 -13 -14z"/>
<path d="M10167 1236 c-4 -10 -1 -13 8 -9 8 3 12 9 9 14 -7 12 -11 11 -17 -5z"/>
<path d="M1166 1222 c-3 -5 1 -9 9 -9 8 0 12 4 9 9 -3 4 -7 8 -9 8 -2 0 -6 -4
-9 -8z"/>
<path d="M10153 1053 c0 -9 4 -10 14 -2 7 6 13 12 13 14 0 1 -6 2 -13 2 -8 0
-14 -6 -14 -14z"/>
<path d="M1140 954 c8 -10 15 -20 16 -22 1 -2 4 1 7 5 3 5 -4 15 -16 23 -21
12 -21 12 -7 -6z"/>
<path d="M10070 846 c0 -2 7 -7 16 -10 8 -3 12 -2 9 4 -6 10 -25 14 -25 6z"/>
<path d="M1116 793 c-6 -14 -5 -15 5 -6 7 7 10 15 7 18 -3 3 -9 -2 -12 -12z"/>
<path d="M10045 629 c-4 -6 -5 -12 -2 -15 2 -3 7 2 10 11 7 17 1 20 -8 4z"/>
<path d="M9983 243 c0 -9 4 -10 14 -2 7 6 13 12 13 14 0 1 -6 2 -13 2 -8 0
-14 -6 -14 -14z"/>
<path d="M1707 9 c7 -7 15 -10 18 -7 3 3 -2 9 -12 12 -14 6 -15 5 -6 -5z"/>
<path d="M3947 9 c7 -7 15 -10 18 -7 3 3 -2 9 -12 12 -14 6 -15 5 -6 -5z"/>
<path d="M4907 9 c7 -7 15 -10 18 -7 3 3 -2 9 -12 12 -14 6 -15 5 -6 -5z"/>
<path d="M5387 9 c7 -7 15 -10 18 -7 3 3 -2 9 -12 12 -14 6 -15 5 -6 -5z"/>
<path d="M5867 9 c7 -7 15 -10 18 -7 3 3 -2 9 -12 12 -14 6 -15 5 -6 -5z"/>
<path d="M8107 9 c7 -7 15 -10 18 -7 3 3 -2 9 -12 12 -14 6 -15 5 -6 -5z"/>
<path d="M9387 9 c7 -7 15 -10 18 -7 3 3 -2 9 -12 12 -14 6 -15 5 -6 -5z"/>
</g>
</svg>
